<svg xmlns="http://www.w3.org/2000/svg" width="1024" height="1024" viewBox="100 100 824 824"><path fill="#f0b329" d="M490.967 168.1C680.757 156.498 844 300.984 855.537 490.777s-133.004 352.988-322.802 364.46C343.029 866.703 179.931 722.247 168.4 532.545S301.269 179.695 490.967 168.1M302.448 670.406c-.029 6.936-.803 56.585.226 59.394l1.184.39c7.235 4.83 14.901 8.838 22.299 13.372 5.875 3.601 12.155 9.286 18.637 11.602 4.887 1.746 49.34 1.074 57.258.623-5.898-5.667-23.143-19.904-30.234-25.376l13.254.176c9.384 8.104 21.103 17.801 30.866 25.334 7.709 1.029 21.018.366 29.021.367 8.027.002 18.031.233 25.873-.384-10.003-8.382-19.409-16.965-29.325-25.394 3.701-.001 9.9-.193 13.403.103 11.061 7.755 20.77 18.052 30.787 25.287 8.269 1.302 45.072 1.165 54.012.133-10.034-8.53-20.336-16.749-30.173-25.481l14.462-.017c3.479 2.456 7.62 6.452 10.875 9.357l18.165 16.35c10.994.491 35.657.469 46.521-.348-6.315-6.179-22.06-19.837-29.082-25.372l13.71-.026c10.18 7.508 20.82 19.012 30.277 25.968 8.63.726 20.293.4 29.233.325 8.594-.072 19.557.117 27.925-.543-4.828-4.194-9.852-8.236-14.608-12.463-4.861-4.322-9.474-8.981-14.421-13.242 5.383.005 11.577-.134 16.895.046 6.129 6.364 21.118 20.628 27.998 25.866 5.225.25 28.164 1.31 31.493-.498 1.545-3.761.651-33.357.602-39.689-7.513-7.131-23.893-15.237-32.84-23.789-.113-4.161-.259-7.604.137-11.779 4.144 3.852 26.97 19.459 32.068 22.024.747-13.628-.32-31.091.152-45.59a542 542 0 0 1-15.765-10.691c-5.355-4.086-10.528-7.982-16.442-11.233l.053-14.076c1.171 1.234 2.238 2.226 3.467 3.389l1.506.975c3.39 2.469 6.781 4.5 10.18 6.82.521.602.507.673 1.093 1.039 4.699 2.6 9.135 6.952 15.701 10.426.62-5.436.265-11.684.218-17.223q-.177-14.018-.045-28.038c-5.04-4.42-10.158-7.833-15.753-11.419-5.599-3.985-10.564-7.716-16.389-11.501-1.9-1.135-47.04-.25-53.419-.182-.374-2.629.06-7.541-1.535-8.925-3.864-2.167-8.037-5.005-11.898-7.322-.399-.439-5.447-3.519-6.215-3.952-.647-.444-1.228-.878-1.858-1.342-1.825-1.025-3.374-2.213-5.108-3.165-2.734-1.941-5.281-3.358-8.04-5.149a611 611 0 0 1 .036-14.194c1.778 1.275 1.94 1.719 3.422 3.531l1.2.751 2.885 1.722c.869.879 6.036 4.046 7.392 4.872 1.452 1.033 1.876 1.347 3.446 2.144.574.326 1.146.658 1.739.949 1.013.852 2.245 1.891 3.488 2.37 4.194 2.871 7.306 4.852 11.867 7.093.464-4.666.408-8.936.125-13.606.201-2.972.121-5.794.177-8.749.017-1.669.019-3.778-.093-5.43.121-2.657.136-4.8.089-7.458l.062-2.353-.033-1.06c-.025-2.875 1.008-8.152-1.416-9.585l-.813-.462a1005 1005 0 0 0-13.917-8.97 15 15 0 0 0-1.542-1.049c-1.836-1.13-3.385-2.501-5.317-3.579l-1.173-.471c-1.032-1.019-2.167-1.764-3.49-2.375a95 95 0 0 0-8.078-5.221l-.083-14.145c3.656 2.011 12.96 8.303 16.784 10.823l1.887 1.272c1.47 1.115 3.229 2.167 4.785 3.278.892.594 1.745 1.257 2.738 1.672 1.836 1.316 7.639 6.861 9.623 4.873.645-3.015.41-21.775.275-25.791q.005-10.835-.174-21.669c-2.701-1.835-5.197-3.865-8.094-5.211-1.784-1.085-6.619-4.594-8.534-5.909-1.384-1.313-5.665-4.879-7.265-5.3a508 508 0 0 1-12.012-8.642c-14.807-.439-31.703-.145-46.629-.048 7.858 26.566-3.503 53.806-31.095 61.843q-2.219.642-4.453 1.227c.348-3.399 1.553-7.072-1.485-8.863 2.017-2.005 1.657-3.588 1.656-6.506-.053-3.606.306-12.596-.262-15.573l-.774-1.054c-3.857-1.85-7.92-5.048-11.669-7.133-.703-.656-2.337-1.496-3.223-1.994-1.316-1.079-1.969-1.475-3.419-2.386-2.079-1.292-5.493-4.06-7.447-4.998-1.862-1.343-4.795-3.363-6.872-4.394l-.525.103c-.246-3.375-.108-8.27-.112-11.756 4.979 3.34 12.152 7.782 17.346 10.765l1.11.644c1.796 1.128 4.743 3.226 6.507 4.016 3.882 2.773 5.022 4.059 9.423 6.617.063-3.004.061-5.596-.006-8.604.132-3.662.324-11.658-.008-15.231l.168-1.022c-.052-3.477.809-15.35-.755-18.632.023.048-.71-.67-.639-.602-4.613-2.508-10.366-7.374-15.064-10.401l-.588-.554a104 104 0 0 0-3.892-2.815l-.409-.392-.511-.213a35 35 0 0 0-2.614-2.091c-.38-.453-6.194-5.412-7.132-6.225.334-2.964 1.99-6.905 3.098-9.721l1.347.366c1.558 1.396 2.68 2.268 4.439 3.327.73.748 2.489 1.893 3.416 2.494.244.271.228.287.51.474 1.157.893 2.004 1.576 3.231 2.384l1.207 1.015c2.588 1.382 5.277 3.151 7.778 4.725 1.37.807 2.758 1.594 4.099 2.446 4.657 2.87 3.252-2.608 7.711-6.615 6.838-6.145 10.569-6.559 19.027-6.996-1.719-2.007-3.47-3.777-5.194-5.731-.928-.888-5.327-5.444-5.686-5.674-.514-.779-.912-1.411-1.501-2.141-1.869-1.963-3.281-3.694-5.054-5.704-2.062-2.603-3.633-3.795-5.915-6.029 3.828-.076 7.884-.226 11.688-.118 2.825 2.779 6.266 6.841 8.852 9.938 1.121 1.339 2.104 2.339 3.322 3.576.372.656.328.632.815 1.171 3.178 3.844 7.677 8.583 11.453 11.812 11.593.124 27.631.461 39 .014 2.473-.077 3.877-.044 6.367-.265 16.411 12.502 31.879 52.003 34.696 72.836l.059.468c1.69-.004 5.911-.121 7.381.09 2.824 2.252 8.451 5.524 11.778 7.185 1.127 1.084 3.579 2.396 4.98 3.218.649.837 1.083.927 2.09 1.431 1.398 1.115 6.159 4.461 7.651 5.258 3.16 2.144 6.035 3.85 9.21 5.869 9.286.136 18.637-.242 27.933-.131 2.529.03 5.105.056 7.617-.223 1.715-.201 2.987-.116 4.629-.648.253-.036 1.697-.055 1.741-.285.579-3.03-.058-6.518-.288-9.611.162-1.596.168-1.988.045-3.573l-.069-1.621c.183-2.675.19-5.062.211-7.735-.168-4.065.117-7.633-.138-12.381.29-5.453 1.879-6.86-2.005-9.582-2.9-2.109-9.554-6.149-12.843-8.002-.293-.283-.232-.268-.596-.395-3.988-2.93-11.83-8.441-16.125-10.839-.381-2.874-.183-10.058.038-13.072 4.052 3.178 10.372 7.814 15.062 10.112l.491.264c5.35 4.05 10.552 7.119 16.379 10.33.863-13.01.171-31.188.265-44.807-10.979-7.144-21.181-14.23-32.461-20.974-.376-3.77-.149-9.742-.051-13.667 4.91 4.015 26.615 18.273 32.316 21.501.877-13.313.25-31.878.115-45.598-10.855-7.043-21.55-14.549-32.308-21.473-33.696.457-68.039.039-101.805.136l-283.845.413-.086 59.714c13.525-.224 22.713-1.528 35.192 4.74 24.237 12.176 26.464 32.062 26.629 56.929l-.246 147.909.098 44.478c.082 21.518 1.949 46.81-14.18 63.701-11.712 12.266-27.502 10.301-43.041 10.285zm398.5-220.417c1.885.775 1.797.455 2.19-1.351l.864.946.166.424c.62 1.615.799 1.327 2.57 1.975 1.474 2.897 2.296 4.704 5.619 6.66q.843 1.081 1.673 2.172c-1.717-.603-2.329-.864-3.932-1.681-.531-.636-1.951-1.659-2.655-2.219a65 65 0 0 1-.828-.744l-.584-.604c-1.713-1.807-6.976-4.13-5.083-5.578M590.672 612.753c.997.167 1.869.282 2.87.411l1.458.317c.407.092.706.241 1.049.471l.015.104c.459.292 1.288.603 1.461 1.202-.186.224-.512.305-.744.471.505 1.105 5.788-.4 6.701-.816 1.632.099 1.577.277 2.844-.71l.107.02c.138.363.035.754.183 1.119.201.128.075.081.395.072.34-.288.259-.49.212-.901l.039.079c-.152-1.274-.689-1.319.68-1.577 1.114.014 2.215.065 3.315-.047.231-.024.923-.239.537-.483-1.851-1.17-5.297.397-7.524-.278l-.735-.125c.28-1.209.507-3.343-1.337-3.38-4.759-.095-6.596-6.396-12.443-5.07-5.737 1.301-5.15 2.001-4.457 6.765 3.487.25 7.678.395 11.015 1.574-1.036.043-5.431.15-5.909.647zm-94.75 28.33.769.479.852.548a55 55 0 0 0 1.634.977l.051-.906c-1.269-.943-1.618-1.198-3.001-1.941a17 17 0 0 0-1.57-.939c-.889-.531-5.052-3.436-5.709-2.955-.083.44 4.795 3.406 5.46 3.857.511.327.987.586 1.514.88m2.728 9.316c-1.613 4.197-1.489 5.22-1.855 9.755 1.276 1.668 1.493.031 1.773-1.236.115-3.666.887-5.172.082-8.519m113.38-202.516c-2.255-9.368 3.115-12.232 3.786-9.789.294 3.309.188 6.236.26 9.526l-.12.568c-1.743.631-1.985.344-3.926-.305m88.673 152.582c.361.365.728.957 1.124 1.117l.365-.203c.25.467.443 4.993.33 5.758-.307 2.074-3.03-.783-3.432-1.131.932-2.343 1.217-3.093 1.613-5.541m.215 9.029.57.21c1.583.557 1.061 1.431.957 3.038-.1 1.554.269 13.545-.19 13.991-.206.045-.072.028-.44.032-.554-1.39-.808-1.894-1.562-3.21.102-1.375.27-8.771.574-8.949 2.607-1.522-.533-1.35.091-5.112"/><path fill="#261919" d="m301.625 282.654 283.845-.413c33.766-.097 68.109.321 101.805-.136-.284 7.611.028 15.772.071 23.453.041 7.307-.29 14.882-.194 22.117-.098 3.925-.325 9.897.051 13.667.172 6.263-.759 41.947.264 45.075-.221 3.014-.419 10.198-.038 13.072-.14 6.696.078 13.481.022 20.19l-.103 1.067-.194 1.727c-.017 3.918-.092 7.776.027 11.693l-.026.534c-.144 2.587-.284 3.836.039 6.356-3.151-.013-6.246-.087-9.412-.075-6.765-.026-13.801-.1-20.543.233-6.513-.515-9.628.057-15.631.34-1.47-.211-5.691-.094-7.381-.09l-.059-.468c-2.817-20.833-18.285-60.334-34.696-72.836-4.314-4.251-5.969-5.677-10.891-9.046-.579-.988-.961-1.076-2.022-1.619-1.178-.869-2.206-1.656-3.558-2.257l-.478-.283c-1.045-.628-1.248-.811-2.377-1.193-2.327-1.41-4.032-2.194-6.515-3.273-1.996-.799-3.944-1.707-6.027-2.269-1.452-.518-3.679-1.025-4.949-1.598-3.519-1.072-15.101-3.716-18.477-3.427-5.862-.739-8.336-1.163-14.515-1.281-3.804-.108-7.86.042-11.688.118-11.731 2.307-22.978 8.714-28.339 19.85-.481.532-.622.935-.962 1.592l-.114.217c-1.108 2.816-2.764 6.757-3.098 9.721q-.11.733-.207 1.47c-.142 1.226-.244 2.366-.506 3.577-.703 5.399-1.316 9.686-1.841 15.203l.016 1.334a431 431 0 0 0-.398 23.156c.004 3.486-.134 8.381.112 11.756-.229 2.054-.191 3.753-.024 5.809-.285 4.793-.184 12.083-.031 16.924l-.054 1.314c-.058 6.324-.189 14.449.061 20.739 2.301 2.824 5.017 4.376 8.221 6.044 1.16 1.08 2.414 1.629 3.825 2.336l-.006.561c4.65 1.085 11.934.202 16.7-.241 1.357.018 3.98-.438 5.328-.688q2.234-.585 4.453-1.227c27.592-8.037 38.953-35.277 31.095-61.843 14.926-.097 31.822-.391 46.629.048-.01 2.48.086 7.577.365 10.018-.436 4.679-.301 10.423-.236 15.166l-.038 3.049a145 145 0 0 0-.036 6.089c-.103 3.894-.43 12.653-.068 16.282l.083 14.145q.025 2.012.003 4.023l-.012 3.453c-.049 4.704-.248 11.259.026 15.826-.057 1.283-.179 2.382-.216 3.69l-.075 8.175c-.015 1.846-.249 10.55.254 11.769a611 611 0 0 0-.036 14.194c-.359 2.783-.258 4.973-.18 7.752-.002 4.977-.101 10.233.029 15.172a409 409 0 0 0-.028 11.774c-.096 3.192-.209 9.14.062 12.136 4.257 2.259 12.779 7.346 16.927 9.99l1.975.751c1.13.782 1.823 1.215 3.068 1.837 2.876 1.753 5.442 3.085 8.272 4.748.637.557.894.744 1.596 1.238.819.487 1.7.848 2.549 1.279.473-2.726.493-15.119.332-18.254q.108-5.24.115-10.483.119-4.044-.063-8.085c6.379-.068 51.519-.953 53.419.182-.569 2.854-.005 15.814-.034 19.798q.072 1.42.096 2.842c.008 1.039.042 1.947.104 2.989-.149 2.873-.232 5.209-.24 8.099-.039 3.678-.156 8.205.096 11.804l-.053 14.076a3269 3269 0 0 1-.013 45.49c-.396 4.175-.25 7.618-.137 11.779-.467 11.192-.259 27.362.151 38.632-9.068-.801-18.298-.631-27.404-.522-5.318-.18-11.512-.041-16.895-.046-18.792-.489-39.564-.145-58.406-.045l-13.71.026a4163 4163 0 0 0-46.479.013l-14.462.017c-14.735-.54-39.799-.644-54.626.061-3.503-.296-9.702-.104-13.403-.103a2816 2816 0 0 0-56.435.077l-13.254-.176c-5.929-.689-21.618-.445-28.439-.39-12.464.1-27.303-.496-39.521.169l-1.184-.39c-1.029-2.809-.255-52.458-.226-59.394l3.543.004c15.539.016 31.329 1.981 43.041-10.285 16.129-16.891 14.262-42.183 14.18-63.701l-.098-44.478.246-147.909c-.165-24.867-2.392-44.753-26.629-56.929-12.479-6.268-21.667-4.964-35.192-4.74zm180.891 269.83.013 46.541c9.591 5.531 25.35 17.461 34.821 21.855.827-12.478-.186-31.173.088-44.517-4.265-3.399-8.965-5.929-13.349-9.026-7.153-5.054-14.324-9.939-21.573-14.853m16.134 97.915c.805 3.347.033 4.853-.082 8.519-.28 1.267-.497 2.904-1.773 1.236.366-4.535.242-5.558 1.855-9.755m-2.728-9.316c-.527-.294-1.003-.553-1.514-.88-.665-.451-5.543-3.417-5.46-3.857.657-.481 4.82 2.424 5.709 2.955.666.363.952.526 1.57.939 1.383.743 1.732.998 3.001 1.941l-.051.906a55 55 0 0 1-1.634-.977l-.852-.548zm98.999-18.026c2.717.476 11.261.714 14.047.446l1.707.051c2.413.116 5.157-.106 7.595-.231 2.104-2.822 3.283-3.186 6.154-5.079-5.85-4.017-21.812-11.534-25.809-16.591a1143 1143 0 0 0-23.785-.139c-3.515-.003-10.984-.206-14.242.313 2.872 2.602 30.328 19.835 33.555 20.991.424.173.168.083.778.239m-4.249-10.304-.268-.135c.478-.497 4.873-.604 5.909-.647-3.337-1.179-7.528-1.324-11.015-1.574-.693-4.764-1.28-5.464 4.457-6.765 5.847-1.326 7.684 4.975 12.443 5.07 1.844.037 1.617 2.171 1.337 3.38l.735.125c2.227.675 5.673-.892 7.524.278.386.244-.306.459-.537.483-1.1.112-2.201.061-3.315.047-1.369.258-.832.303-.68 1.577l-.039-.079c.047.411.128.613-.212.901-.32.009-.194.056-.395-.072-.148-.365-.045-.756-.183-1.119l-.107-.02c-1.267.987-1.212.809-2.844.71-.913.416-6.196 1.921-6.701.816.232-.166.558-.247.744-.471-.173-.599-1.002-.91-1.461-1.202l-.015-.104c-.343-.23-.642-.379-1.049-.471l-1.458-.317a73 73 0 0 1-2.87-.411m-73.949 42.395c.417-2.644.318-2.87.131-5.656a682 682 0 0 1 .05-15.067c-6.443-4.743-32.327-20.227-34.262-25.036-.286 19.698-1.858 38.68 12.262 53.613 1.822 2.565 3.488 4.098 6.067 5.857 2.789 2.372 5.291 3.491 8.622 4.951 2.116 1.133 4.728 1.928 7.036 2.637.701-5.557.511-15.655.094-21.299m21.82-105.358c-10.789-10.682-36.843-20.844-51.819-14.24-2.169.956-3.453 1.167-4.414 3.392 4.697 2.982 31.06 20.122 34.072 19.854 1.096-.874 1.391-1.273 2.001-2.596 2.976-6.459 14.176-6.199 20.16-6.41"/><path fill="#f4c57d" fill-opacity=".933" d="M500.743 571.167c.672 4.367.307 11.206.271 15.885a145 145 0 0 1 7.026 4.397l-1.187.763c-1.767-1.401-3.679-2.459-5.649-3.553l-.559-.182c-.974-1.041-1.067-1.119-2.243-1.937l.404-.749c.313.112.609.311.945.228.413-.403.257-12.493.385-14.466z"/><path fill="#eeca8e" fill-opacity=".153" d="m500.645 588.477.559.182c-.133 3.7-.51 7.5-.41 11.145l-.237.379.149.211-.081.199-.171.039c-.123-.104-.064-.027-.155-.266l.157-.22-.252-.334c-.005-3.715-.882-8.887.441-11.335"/><path fill="#eeca8e" fill-opacity=".584" d="M495.057 584.182c-.833-.539-7.443-4.329-6.505-5.072 1.093.332 5.002 2.737 5.679 3.517z"/><path fill="#f4c57d" fill-opacity=".729" d="M494.231 582.627c2.177 1.197 2.747 1.557 4.575 3.164l-.404.749c-1.128-.775-2.174-1.648-3.345-2.358z"/><path fill="#f4c57d" fill-opacity=".867" d="M508.271 591.753c1.402 1.015 2.877 2.088 4.345 2.995l-.793.441a100 100 0 0 0-3.481-2.14z"/><path fill="#f1d5aa" fill-opacity=".443" d="M512.616 594.748c.705.458 1.313.834 2.027 1.262l-.252.649c-1.123-.551-1.508-.776-2.568-1.47z"/><path fill="#eeca8e" fill-opacity=".176" d="M514.643 596.01c.433.272 1.472.73 1.247 1.412-.546.467-1.183-.429-1.499-.763z"/><path fill="#f4c57d" fill-opacity=".612" d="m508.04 591.449.231.304.071 1.296c-.517-.281-.98-.538-1.489-.837z"/><path fill="#f3eee5" fill-opacity=".035" d="M497.143 636.374c1.712 1.325 1.205 2.169 1.005 4.314-1.575-1.392-1.544-1.417-1.138-3.417z"/><path fill="#eeca8e" fill-opacity=".553" d="M505.502 544.636c.326-.087.574-.206.74-.12-.108.273-.74.682-.901.807-.341.078-.503.165-.679.083l-.015-.08c.24-.339.481-.439.855-.69"/><path fill="#f3eee5" fill-opacity=".024" d="m500.647 644.724 3.68 2.542c3.107 2.179 9.117 6.039 12.396 7.882.417 5.644.607 15.742-.094 21.299-2.308-.709-4.92-1.504-7.036-2.637-.39-3.269-2.005-1.647-3.844-4.071-.079-.679 3.619-3.155 2.628-5.15.688-.142-2.849 2.793-3.405-.068-.634-3.265-3.999-.774-4.154-1.724-.51-3.12-.096-6.561-.374-9.812-.005-2.703.155-5.533.203-8.261"/><path fill="#f3eee5" fill-opacity=".063" d="M590.672 612.753c.997.167 1.869.282 2.87.411l1.458.317c.407.092.706.241 1.049.471l.015.104c.459.292 1.288.603 1.461 1.202-.186.224-.512.305-.744.471.505 1.105 5.788-.4 6.701-.816 1.632.099 1.577.277 2.844-.71l.107.02c.138.363.035.754.183 1.119.201.128.075.081.395.072.34-.288.259-.49.212-.901l.039.079c-.152-1.274-.689-1.319.68-1.577 1.595 1.485 4.468 6.129 3.579 8.731-.353 1.036-.731.462-.846 1.808l-1.707-.051c.433-1.469 1.722-1.641.412-3.381-1.888-2.509-6.643-1.33-9.413-1.017-.551-.24-6.27 3.01-1.224 3.645-1.529.028-2.29.126-3.822.307-.61-.156-.354-.066-.778-.239.29-.15.796-.334.979-.639.738.667-8.552-4.442-9.029-4.762l-.772-.506c-.437-.291-3.443-2.172-3.146-2.722 1.595-.828 9.909.553 10.636-.335l-.019-.103a38 38 0 0 1-2.12-.998"/><path fill="#f4c57d" fill-opacity=".957" d="M499.228 642.181c.383-2.956-.272-12.592.665-13.68.961.167 1.154 12.957 1.21 14.628 2.65 1.555 13.461 10.286 15.053 10.445.577-.42.477-1.751.524-2.326q.08-.879.174-1.756c.187 2.786.286 3.012-.131 5.656-3.279-1.843-9.289-5.703-12.396-7.882l-3.68-2.542c-.048 2.728-.208 5.558-.203 8.261-.455 2.905-.491 6.066-.41 9.004-.305-1.928.067-2.016-1.466-3.071.115-3.666.887-5.172.082-8.519.381-2.011 1.185-5.436.527-7.312z"/><path fill="#f1eee5" fill-opacity=".188" d="M500.444 652.985c.278 3.251-.136 6.692.374 9.812.155.95 3.52-1.541 4.154 1.724.556 2.861 4.093-.074 3.405.068.991 1.995-2.707 4.471-2.628 5.15 1.839 2.424 3.454.802 3.844 4.071-3.331-1.46-5.833-2.579-8.622-4.951.118-3.618-1.109-1.778-1.966-2.682-3.496-3.69.903-3.445.789-3.399l.24-.789c-.081-2.938-.045-6.099.41-9.004"/><path fill="#f3ece1" fill-opacity=".208" d="M594.921 623.057c1.532-.181 2.293-.279 3.822-.307-5.046-.635.673-3.885 1.224-3.645 2.77-.313 7.525-1.492 9.413 1.017 1.31 1.74.021 1.912-.412 3.381-2.786.268-11.33.03-14.047-.446"/><path fill="#f3eee5" fill-opacity=".706" d="M498.568 658.918c1.533 1.055 1.161 1.143 1.466 3.071l-.24.789c.114-.046-4.285-.291-.789 3.399.857.904 2.084-.936 1.966 2.682-2.579-1.759-4.245-3.292-6.067-5.857 1.284-1.006 1.309-1.317 1.891-2.848 1.276 1.668 1.493.031 1.773-1.236"/><path fill="#f0b329" d="M482.31 538.942c4.697 2.982 31.06 20.122 34.072 19.854 1.096-.874 1.391-1.273 2.001-2.596 2.976-6.459 14.176-6.199 20.16-6.41 12.748 10.736 16.09 27.122 18.093 43.069.398 3.169.047 4.851.988 8.035 1.168.59 2.236.56 2.964.933 2.872 2.602 30.328 19.835 33.555 20.991.424.173.168.083.778.239 2.717.476 11.261.714 14.047.446l1.707.051c2.413.116 5.157-.106 7.595-.231 2.104-2.822 3.283-3.186 6.154-5.079 1.251.031 2.833 1.283 3.877 1.978-.527.679-.691.916-1.266 1.499-16.186 25.76-41.303 46.694-71.402 53.28-11.84 2.591-27.031 3.633-39.004 1.446.701-5.557.511-15.655.094-21.299.417-2.644.318-2.87.131-5.656a682 682 0 0 1 .05-15.067c-6.443-4.743-32.327-20.227-34.262-25.036-.201-3.06-.102-7.214-.113-10.364 9.591 5.531 25.35 17.461 34.821 21.855.827-12.478-.186-31.173.088-44.517-4.265-3.399-8.965-5.929-13.349-9.026-7.153-5.054-14.324-9.939-21.573-14.853q-.032-6.772-.206-13.542"/><path fill="#f3ece1" d="M624.424 618.244c1.251.031 2.833 1.283 3.877 1.978-.527.679-.691.916-1.266 1.499l-4.818 1.101c-1.074.234-2.847.49-3.947.501 2.104-2.822 3.283-3.186 6.154-5.079"/><path fill="#f0b329" d="M598.732 592.397c4.257 2.259 12.779 7.346 16.927 9.99l1.975.751c1.13.782 1.823 1.215 3.068 1.837 2.876 1.753 5.442 3.085 8.272 4.748.637.557.894.744 1.596 1.238.819.487 1.7.848 2.549 1.279-1.612 2.676-3.143 5.329-4.818 7.982-1.044-.695-2.626-1.947-3.877-1.978-5.85-4.017-21.812-11.534-25.809-16.591.132-3.115.083-6.143.117-9.256M482.59 474.694c2.301 2.824 5.017 4.376 8.221 6.044 1.16 1.08 2.414 1.629 3.825 2.336l-.006.561c-3.45.168-8.38-.097-11.997-.152q-.129-4.394-.043-8.789"/><path fill="#f4c57d" fill-opacity=".914" d="M709.426 749.09c-2.883-2.538-21.609-15.801-21.772-17.272l.047.059.409-.206-.175.477.644-.238c2.772 1.882 13.536 9.77 15.869 11.885a71 71 0 0 0 6.271 5.029z"/><path fill="#f4c57d" fill-opacity=".953" d="M696.711 719.181c.901.54 5.499 3.618 5.958 3.683.198-.354.228-1.1.268-1.439.066-.561.124-1.005.256-1.537l.051-.036c.036.056.609 2.341.738 2.757.077.813.071.993.031 1.808l-.043.874-.986-.577c-2.016-1.823-4.343-3.198-6.658-4.598z"/><path fill="#eeca8e" fill-opacity=".227" d="M696.266 744.417c-1.124.154-8.795.438-9.275-.357.739-.862 12.794-.619 14.648-.022-2.946-.163-2.741-.354-5.373.379"/><path fill="#eeca8e" fill-opacity=".824" d="M702.937 721.425c-.38-1.582-.51-9.043.27-10.146l.081.011c.669 1.075.65 9.311.694 11.319-.129-.416-.702-2.701-.738-2.757l-.051.036c-.132.532-.19.976-.256 1.537"/><path fill="#eeca8e" fill-opacity=".796" d="m702.984 724.714.986.577q.012 2.658-.092 5.315c-.634 1.258-.333 3.105-.289 4.609l-.298.482c-.58-.652-.334-9.493-.307-10.983"/><path fill="#f4c57d" fill-opacity=".757" d="M707.504 726.798c3.176 1.666 6.244 4.311 8.872 6.754-3.42-1.992-5.222-3.3-8.442-5.41z"/><path fill="#f1d5aa" fill-opacity=".443" d="M688.435 714.741c1.305.47 4.27 1.444 5.15 2.361l.279 1.641a129 129 0 0 0-5.429-4.002"/><path fill="#f4c57d" fill-opacity=".655" d="M693.585 717.102c1.27.726 1.958 1.141 3.126 2.079l-.385.935a88 88 0 0 1-2.462-1.373z"/><path fill="#f4c57d" fill-opacity=".894" d="m704.013 724.417.749.325c1.115.451 1.918 1.2 2.742 2.056l-1.121.3c-1.06-1.062-1.1-1.063-2.413-1.807z"/><path fill="#eeca8e" fill-opacity=".502" d="M710.719 748.824c3.633 3.27.728 2.004-1.293.266z"/><path fill="#f1d5aa" fill-opacity=".784" d="M696.266 744.417c2.632-.733 2.427-.542 5.373-.379-2.55.691-2.635.492-5.373.379"/><path fill="#f1d5aa" fill-opacity=".345" d="M703.589 735.215c-.044-1.504-.345-3.351.289-4.609.231 2.081.117 2.575-.289 4.609"/><path fill="#f4c57d" fill-opacity=".929" d="m696.445 309.666.387.254c1.184.787 2.816 2.297 4.134 2.379.267.154 1.345.928 1.722.857.25-.299.335-1.36.383-1.69 3.088 2.43-2.145 2.266 5.737 6.335l-.22 1.355c-1.424-1.083-2.962-2.121-4.441-3.132-.212 7.481.041 12.677-.896 20.249l-.684-6.024c-.826-7.744-.375-7.109-.06-15.043l-6.504-4.238z"/><path fill="#f3eee5" fill-opacity=".929" d="m702.654 306.703.573 1.164c-.922 1.486-.885 2.038-.156 3.599-.048.33-.133 1.391-.383 1.69-.377.071-1.455-.703-1.722-.857-.654-3.039-.674-3.182 1.688-5.596"/><path fill="#f4c57d" fill-opacity=".933" d="M687.621 304.529c2.696 1.383 5.411 2.719 7.97 4.332l-.132 1.908c-2.79-1.995-5.241-4.008-7.838-6.24"/><path fill="#eeca8e" fill-opacity=".973" d="M702.654 306.703c.411-2.369-.14-4.538.944-6.918.256-.562 1.213 5.281-.371 8.082z"/><path fill="#f4c57d" fill-opacity=".878" d="M709.619 318.548c2.467 1.356 5.747 4.035 8.018 5.813-4.212-1.924-4.89-2.715-8.618-4.971z"/><path fill="#eeca8e" fill-opacity=".804" d="m695.591 308.861.854.805-.442 1.302-.544-.199z"/><path fill="#f1eee5" fill-opacity=".047" d="m713.258 367.659.3-.025c.111.132.051.028.14.402l-.281-.084c-.129-.138-.071-.047-.159-.293"/><path fill="#f1eee5" fill-opacity=".043" d="M693.558 665.745c4.101 1.712 1.342 8.364-.511 9.012-2.385-2.872-3.386-5.268-.151-8.35zm.336 7.434c.561-2.091 1.744-4.787.039-6.349-1.302 2.464-2.634 4.237-.039 6.349"/><path fill="#f1eee5" fill-opacity=".082" d="M693.933 666.83c1.705 1.562.522 4.258-.039 6.349-2.595-2.112-1.263-3.885.039-6.349"/><path fill="#f3ece1" fill-opacity=".098" d="M711.267 627.296q.593.08 1.184.17c.706.117 1.419.129 2.062.258l.081-.027c.562.298.513 1.473.567 1.987l.129.892c-3.038-.21-4.014.096-4.023-3.28"/><path fill="#f1eee5" fill-opacity=".753" d="M599.05 570.576c1.688.911 3.175 1.577 4.82 2.604 2.701 1.761 5.373 3.348 8.124 5.071.993.621 3.676 1.817 4.057 2.973.226 1.331-.251 4.495 2.564 1.893.107-.102.426-.397.616-.289 3.957 2.238 7.971 4.399 11.546 7.213 1.872 1.473 1.223 2.069 2.674 3.945.161 3.135.141 15.528-.332 18.254-.849-.431-1.73-.792-2.549-1.279.178-2.622 2.537-5.121.886-6.665-3.285-3.07-2.776-8.714-5.68-12.482-1.524-1.977-5.905-3.19-7.837-3.042l-.864.045c-.038-.413-.219-3.434-.494-3.665l-.162-.01c-.865.938-.351 14.45-.76 17.245-4.148-2.644-12.67-7.731-16.927-9.99-.271-2.996-.158-8.944-.062-12.136.437-3.18.376-6.468.38-9.685"/><path fill="#f3eee5" fill-opacity=".722" d="M542.652 356.599c1.512-.518 28.368.721 33.354.518 3.999.299 6.549.307 10.553.378 1.061.543 1.443.631 2.022 1.619-1.741 2.023-2.865 6.116-.372 8.131 1.008.815 3.595.965 4.896 1.18-11.369.447-27.407.11-39-.014-3.776-3.229-8.275-7.968-11.453-11.812"/><path fill="#f1eee5" fill-opacity=".725" d="M521.607 355.899c2.78-.256 3.645-.361 6.512-.295-.639.918-.961.895-.626 2.16.644 2.429 3.11 2.401 3.784 4.5.254.788-1.61 2.504.218 2.956 4.348.169 4.368-.522 4.636-3.64 1.724 1.954 3.475 3.724 5.194 5.731-8.458.437-12.189.851-19.027 6.996-4.459 4.007-3.054 9.485-7.711 6.615 1.664-1.68 7.249-3.821 2.207-7.914-2.724-2.211-3.714 3.389-6.306 5.468-2.501-1.574-5.19-3.343-7.778-4.725.608-1.283 1.246-3.546 1.684-4.275 4.515-7.515 8.81-11.398 17.213-13.577"/><path fill="#f1eee5" fill-opacity=".808" d="M482.924 394.996c5.942 3.291 11.329 6.814 17.086 10.388-.013 7.266.121 16.448-.138 23.533-5.194-2.983-12.367-7.425-17.346-10.765q-.112-11.583.398-23.156"/><path fill="#f3ece1" fill-opacity=".82" d="M489.636 361.882c5.361-11.136 16.608-17.543 28.339-19.85 2.282 2.234 3.853 3.426 5.915 6.029-.724.012-3.351-.143-3.532.299-.954 2.326-.008 3.248 1.865 3.635 1.702.351 2.045 1.14 1.913 2.279l-1.513.256c-10.689 2.524-12.057 4.672-18.429 12.806-1.92-4.578 3.134-4.233.557-9.194l-.379-.83c-.078-.139-5.316-3.87-5.871-3.724-4.824 1.264-4.655 5.92-8.865 8.294"/><path fill="#f1eee5" fill-opacity=".769" d="M500.845 406.593c3.781 2.325 12.65 8.212 16.053 9.766.332 3.573.14 11.569.008 15.231a94 94 0 0 1-.64-3.279l-.153-.082.104.001c-1.752 1.651-3.776.812-5.665 3.3-.248.327-2.563 1.707-3.063 2.047-1.764-.79-4.711-2.888-6.507-4.016.332-6.418.044-16.354-.137-22.968"/><path fill="#f1eee5" fill-opacity=".749" d="M617.504 439.472c.945 1.592.325 3.437 1.72 3.048 1.168-.326 2.035 1.599 2.045 2.488.056 5.214 5.544-.687 6.479-2.27a73 73 0 0 1-1.102-3.203c2.897 1.346 5.393 3.376 8.094 5.211q.18 10.834.174 21.669c-.887-.867-4.807-.559-3.139-2.258l-.097-.133c-.493-.216-1.778-.304-2.318-.33-3.331-2.19-7.006-4.819-10.364-7.028-1.243-.816-1.023-2.299-1.23-3.902.412-1.65.162-3.898.258-5.806-.101-2.576-.526-5.141-.52-7.486"/><path fill="#f1eee5" fill-opacity=".639" d="M600.176 554.543c2.822 5.715 2.075 4.287 7.612 6.518 2.683 1.08 8.131-1.132 8.329-2.817-.565-1.226-1.169-.198-2.262-3.025.768.433 5.816 3.513 6.215 3.952-2.237 5.308-.689 4.543 3.545 8.972 6.084 1.609 5.645 3.162 8.353-1.65 1.595 1.384 1.161 6.296 1.535 8.925q.182 4.041.063 8.085l-.364.344c-2.544 2.44-3.532 4.033-6.663 1.504.611-1.87 1.228-2.812 1.072-4.816-.452-5.801-10.508-7.864-6.969-.834.622 1.234 1.502.879 1.909 3.097-1.192-.679-3.481-2.84-4.049-2.882-2.349-.173-.124-1.583-2.083-3.164-.712-2.965-.512-6.37-.533-9.53.139-3.511 1.376-9.1-3.651-5.338-3.461 2.59-11.975-1.447-12.033-6.392z"/><path fill="#f3ece1" fill-opacity=".769" d="M687.155 434.7c.294.011.766-.039 1.025.147.104.839.923 5.597 1.839 5.73.396.057.046.648-.023.845-.648.16-1.323.216-1.961.415-.147 1.582 10.489 6.558 11.486 8.869-.267.348-1.194.501-1.584.604-3.066-.27-6.833-.404-9.635-1.515-6.794-2.694-21.211 6.119-25.668-2.272l-.734-1.373c1.149-1.223 1.372-.996 1.893-1.502-.21-.874-3.763-2.895-4.779-3.229-.596-.055-1.189-.092-1.775-.205 6.742-.333 13.778-.259 20.543-.233-4.164 1.504-.679 3.03-.035 2.931 4.17-.639 11.608 4.45 9.447-2.856-.323-2.52-.183-3.769-.039-6.356"/><path fill="#f3eee5" fill-opacity=".816" d="M500.608 385.702c4.698 3.027 10.451 7.893 15.064 10.401-.33 1.713-.345 3.934-2.219 4.632-1.209.45-.895 4.19-.115 4.941 2.766 2.663 2.006 4.498 1.094 7.832-1.283-.647-5.456-3.292-6.455-4.223-.638-1.362-3.546-3.825-4.566-3.781-.005-.185 1.857-3.276.324-4.526l-.337.486c-.116.06-.054.052-.185.022-1.198-1.053-1.284-5.964-2.165-8.18-.177-2.84-.123-4.639-.44-7.604"/><path fill="#f1eee5" fill-opacity=".271" d="M617.988 532.672c.188-.58.628-2.314 1.381-2.424.252.208.114.676.318.954.368.021.671-.291 1.049-.241.238.184.246.682.539.701.161-.582 5.893-4.618 6.334-4.84 1.325.319 1.475.427 2.748.359l.39.237c-.019.013-.852.449-.894.765-.037.274.166.591.36.766.339.306.512.367.953.678.713.503 1.351 1.178 2.057 1.718.249.191.338.423.483.696.057.107.119.213.178.319-.164 3.254-.489 4.142.083 7.081-.52 1.54-2.619.47-4.262 1.879-1.145.981-2.479 2.149-3.622 3.121-2.557.501-4.544.738-7.114.897-.593-.291-1.165-.623-1.739-.949.044-4.643 1.377-6.937.758-11.717"/><path fill="#f1eee5" fill-opacity=".318" d="M617.153 500.581c-1.829-.633-1.338-2.74-.498-4.003l.308-.499c.659.399.921.584 1.542 1.049.068.362.122.816.204 1.085.505 1.658-.796 3.855-.213 5.263.315.473 1.382.426 1.751.501 3.747.771 3.695 5.789 8.463 4.376 2.278-.675 2.112-.219 3.712-2.255l.813.462-.054 1.452c-.093 2.174-2.541 8.292 1.47 8.133l.033 1.06c-4.041 3.935-6.373.916-7.755 6.772l-.121.492c-1.671-.947-7.025-4.552-8.715-5.755 2.339-.923 2.463-3.813 1.352-5.701-2.051-3.489-1.47-8.223-2.292-12.432"/><path fill="#f1eee5" fill-opacity=".016" d="M686.888 595.398c.029-3.984-.535-16.944.034-19.798 5.825 3.785 10.79 7.516 16.389 11.501l-.243.681c-1.524 4.098-.67 7.979-2.519 12.342-.963-5.898 1.283-4.24-4.131-5.207-1.7-2.406-3.442 1.268-5.127 1.004-.687-.827 1.88-2.071 1.974-2.827-.098-.24-.014-.141-.279-.273-.662.037-.604.662-1.475.464-1.832-.416-3.32 1.001-4.623 2.113"/><path fill="#f1eee5" fill-opacity=".835" d="M484.749 378.459c3.136 3.961-1.635 10.355 1.284 10.767.219-.101-.518-6.115 1.491-5.986 2.96.19 3.276 4.622 5.938 4.917 6.88.763 5.23-1.98 2.666-5.824 1.273.871 2.658 1.881 3.892 2.815-.377 2.131-.226 13.506.441 15.495q-.126.6-.241 1.2c-.105.557-.139 1.299-.588 1.676-.901.113-13.293-8.865-16.724-9.857.525-5.517 1.138-9.804 1.841-15.203"/><path fill="#f1eee5" fill-opacity=".659" d="M500.058 464.8c.881 1.782.85 4.477 1.177 5.001-.271.018 3.291-1.116 2.449-1.532-.56-.278-.393-1.253-.169-2.015 2.352 1.556 5.54 3.38 7.741 5.068 1.65 1.268 2.067 1.521 3.917 2.521 3.038 1.791 1.833 5.464 1.485 8.863-1.348.25-3.971.706-5.328.688l-.592-.18c-1.034-.306-1.838-.99-2.973-.86-7.401.847-9.548 1.809-8.05-4.644 2.199-1.859.218-9.448.343-12.91"/><path fill="#f3eee5" fill-opacity=".573" d="m598.896 491.909.533.237c2.405 1.086 3.648 3.245 5.84 1.397 1.657-1.397 1.629.597 1.995 1.135 3.117 4.581 5.211 2.818 4.382-2.178 1.932 1.078 3.481 2.449 5.317 3.579l-.308.499c-.84 1.263-1.331 3.37.498 4.003-.47.475-.546.484-1.132.816-7.274 1.597-2.655 5.707-4.349 10.608-.364 1.052-.167 1.692.075 2.687a41 41 0 0 0-2.075-1.269c.888-3.705 1.012-4.095-2.503-2.299l-.769.384-.467-.146c-1.352-.946-2.008-1.024-3.266-1.824 1.288-1.662 1.624-3.4 1.834-5.469 4.329-.021 4.262-.491 3.324-5.201-3.489-.215-3.605 2.107-3.324 5.201-4.213-.344-4.201-.19-3.707 4.108l-1.872-.442c-.274-4.567-.075-11.122-.026-15.826"/><defs><linearGradient id="a" x1="511.987" x2="501.391" y1="462.611" y2="454.438" gradientUnits="userSpaceOnUse"><stop offset="0" stop-color="#f2efeb" stop-opacity=".498"/><stop offset="1" stop-color="#f0ede7" stop-opacity=".588"/></linearGradient></defs><path fill="url(#a)" d="M500.901 441.583c.886.498 2.52 1.338 3.223 1.994l-.604 1.186c-.56.945-1.066 2.106-.695 3.213.11.362.037.125.203.244.46.331.811.875 1.135 1.324.527.732 1.459 1.102 2.09 1.709.751.722 1.741.977 2.72 1.186.866.219 1.621.724 2.499.925.432.099 1.064.591 1.365.848 1.415 1.208 2.031.166 2.495-1.223.222-.666.327-1.504.461-2.279l.774 1.054c-.086.724-.225 5.684-.504 5.783-1.605.575-1.52 4.15-.073 4.185.576.594.41 1.875.448 2.663-4.87-.604-3.858-.243-7.222 3.888-1.632-1.1-7.967-5.037-8.322-6.695l-.209-.897.307-.842c2.899-1.173 3.105-3.332-.109-3.908.443-4.875.028-9.682.018-14.358"/><path fill="#f1eee5" fill-opacity=".627" d="m604.047 448.803 1.036.949c.184 4.028.875 10.351-.254 13.961-.731 2.336-.412 3.565 1.889 4.3 3.561 1.793 4.952 5 9.392 5.422-.134 2.501.139 5.598-.504 7.676-3.824-2.52-13.128-8.812-16.784-10.823-.362-3.629-.035-12.388.068-16.282 4.832-1.031 5.043-.386 5.157-5.203"/><path fill="#f3eee5" fill-opacity=".69" d="M660.456 453.388c1.887-.95 1.752-.626 3.786-.53 10.78.509 22.564-.399 33.246-.474 3.249 2.283 2.748 2.274 6.3 3.594-7.024.182-11.034 2.943-17.784 2.255-3.361-.343-7.543-2.244-9.998 1.155-1.923 2.663-3.499.561-4.95-.248l-.044.014-.051.123c-.927.086-.915-1.358-2.854-.631-1.492-.797-6.253-4.143-7.651-5.258"/><path fill="#f1eee5" fill-opacity=".498" d="M598.631 519.6c4.112 3.403 1.447-4.253 6.879-1.284 2.598.662 1.868.065 4.255 1.432-.619.003-1.207-.048-1.727.328-.166.578 2.388 4.137 2.693 5.212.364 1.285-.556 1.935-.597 2.846.46.932 1.91-.431 2.512-.381.339.251.149 1.06.302 1.504 1.215.233 1.039-7.27 2.762-3.216.397.934.312 2.221.436 3.288q-.013 2.47.032 4.938c-2.724 4.997-7.762-2.741-8.976-5.498l.005-.002c-.45.183-.637.682-.981 1.006-.912-.01-2.686-.18-3.466-.137l.184.366c.831 1.676-.164 2.483-.514 4.284l-.123.614c-1.482-1.812-1.644-2.256-3.422-3.531-.503-1.219-.269-9.923-.254-11.769"/><defs><linearGradient id="b" x1="684.184" x2="683.242" y1="458.25" y2="463.671" gradientUnits="userSpaceOnUse"><stop offset="0" stop-color="#f0ecdf" stop-opacity=".592"/><stop offset="1" stop-color="#efeae2" stop-opacity=".639"/></linearGradient></defs><path fill="url(#b)" d="M706.615 456.171q.411.376.828.744c-1.493.237-1.515.256-2.949-.09-2.118-.511-10.264 2.332-6.246 5.426 2.078 1.6 9.973 2.049 12.308 1.303l2.311.607c-2.512.279-5.088.253-7.617.223-9.296-.111-18.647.267-27.933.131-3.175-2.019-6.05-3.725-9.21-5.869 1.939-.727 1.927.717 2.854.631l.051-.123.044-.014c1.451.809 3.027 2.911 4.95.248 2.455-3.399 6.637-1.498 9.998-1.155 6.75.688 10.76-2.073 17.784-2.255.974.081 1.85.154 2.827.193"/><path fill="#f1eee5" fill-opacity=".404" d="M493.084 459.148c1.133.735 1.922 1.206 2.954 2.083-2.034 3.865 1.247 7.949-1.815 12.926-2.766 4.497-1.975.854-4.719 1.846-3.244 1.172-4.529-2.56-6.056-3.359-.381-.657-.26-4.873-.284-5.965l.012.169.585-.995c1.583-2.638 1.369-4.653 4.085-4.802l.248-.272c1.915-.635 1.604 2.236 4.99-1.631"/><path fill="#f1eee5" fill-opacity=".655" d="M598.669 553.315c.755.537.928.605 1.507 1.228l.026.949c.058 4.945 8.572 8.982 12.033 6.392 5.027-3.762 3.79 1.827 3.651 5.338-.394-2.713-.223-7.747-3.457-2.203-1.949 3.342 1.824 4.673-2.794 10.211-1.767-1.114-3.028-2.049-4.927-3-1.762-1.279-4.112-2.541-6.01-3.743-.13-4.939-.031-10.195-.029-15.172"/><path fill="#f1eee5" fill-opacity=".627" d="m617.075 588.817.864-.045c1.932-.148 6.313 1.065 7.837 3.042 2.904 3.768 2.395 9.412 5.68 12.482 1.651 1.544-.708 4.043-.886 6.665-.702-.494-.959-.681-1.596-1.238.599-1.97-.058-7.68-3.491-7.314-1.756.187-1.581 1.73-4.781 2.566-1.245-.622-1.938-1.055-3.068-1.837-.336-4.896-.551-9.392-.559-14.321"/><path fill="#f1eee5" fill-opacity=".702" d="m691.919 425.036.447-.046c1.843 1.265 3.074 1.917 5.045 2.94.228 1.181.78 4.747 1.711 4.92 1.296.241 1.739 2.66.925 3.825-.645.319-1.2-.162-1.57.081-.329 1.056-.843 3.878-1.285 4.512l-.055.013c-.236-.334-.061-1.462-.345-1.548.135-.122-1.549 5.96-1.568 6.015l-.852-.683.036-.259.123-.786c.366-2.485-1.545-3.133-3.379-1.191a30 30 0 0 1-1.156-1.407c.069-.197.419-.788.023-.845-.916-.133-1.735-4.891-1.839-5.73-.259-.186-.731-.136-1.025-.147l.026-.534c.208-2.293-.365-5.577 1.002-7.408 1.242-1.665 1.899-.512 3.736-1.722"/><path fill="#f1eee5" fill-opacity=".737" d="m599.2 429.702.088.573c-.056 2.291-.1 7.378 4.474 8.441 2.459-.589 1.41-.657 3.777.122 2.393.786 3.449-.622 3.928-2.838.859-3.975 4.669-.109 5.044.028 1.202 1.335 1.205 1.396 1.016 3.198l-.023.246c-.778-.452-1.014-.748-1.688-1.378-.671-2.443-6.041.421-3.786 9.789-.233 1.417-.369 2.252-.742 3.637-1.85-.188-10.037-5.453-12.324-6.652-.065-4.743-.2-10.487.236-15.166"/><path fill="#f4c57d" fill-opacity=".988" d="M703.311 587.101c.734 8.353.368 14.309.918 22.166 5.168 3.14 8.219 5.561 12.754 9.239l-1.035.586c-4.686-2.553-7.489-4.881-11.907-7.701-.033 7.259.26 14.779-.851 21.964-.586-.366-.572-.437-1.093-1.039.052-2.507-.197-3.31-.282-5.551.368-.004.234.013.44-.032.459-.446.09-12.437.19-13.991.104-1.607.626-2.481-.957-3.038l-.57-.21c-6.637-6.063-2.927-.071-8.393-1.985.047-1.31.659-2.963-.248-3.718-1.633-1.313-3.013-2.472-5.189-2.562a55 55 0 0 1-.104-2.989c2.918 1.725 2.839 2.39 6.118 2.345l.309-.001c1.431.362 1.776 1.094 2.225 2.396.487 1.412 2.284 2.272 3.454 3.026.402.348 3.125 3.205 3.432 1.131.113-.765-.08-5.291-.33-5.758l-.365.203c-.396-.16-.763-.752-1.124-1.117l-.154-.341c1.849-4.363.995-8.244 2.519-12.342z"/><path fill="#f1eee5" fill-opacity=".584" d="M482.987 436.518c3.272-.126 4.034.833 4.268 4.228.195 2.813 5.039 5.208 7.502 4.495.788-.229 3.869-1.93 4.821-2.408.104 1.631.223 2.039-.073 3.617-1.09.329-2.897 1.686-3.01 2.561-.587 4.527-.248 4.857-1.928 9.33-2.719-1.703-5.821-3.195-8.285-4.732.525-1.47 1.55-2.524-.444-2.918l-.694-.154c2.089-.994-.764-7.626-.386-9.539.626-3.166-1.35-2.074-1.771-4.48"/><path fill="#f1eee5" fill-opacity=".51" d="M605.606 513.036c2.694 1.827 6.572 2.438 7.412 5.458.306 1.099.543 4.977 2.509 2.513l.215-.29c.2.304.355 3.405.967 3.649 1.422.489 2.181-.897 2.41-2.081.023-.117.286-.602.39-.57 2.201.68 5.659 3.349 7.654 4.35.242.215.293.432.446.757-.441.222-6.173 4.258-6.334 4.84-.293-.019-.301-.517-.539-.701-.378-.05-.681.262-1.049.241-.204-.278-.066-.746-.318-.954-.753.11-1.193 1.844-1.381 2.424-.419-.942-.7-1.93-1.371-2.733l-.471-.61c-.124-1.067-.039-2.354-.436-3.288-1.723-4.054-1.547 3.449-2.762 3.216-.153-.444.037-1.253-.302-1.504-.602-.05-2.052 1.313-2.512.381.041-.911.961-1.561.597-2.846-.305-1.075-2.859-4.634-2.693-5.212.52-.376 1.108-.325 1.727-.328-2.387-1.367-1.657-.77-4.255-1.432-.011-1.845-.022-3.426.096-5.28"/><path fill="#f1eee5" fill-opacity=".451" d="M633.362 467.772c2.116-.128 1.074 8.418 1.017 10.473-.216-1.316-.223-6.628-.674-6.986-.809.339-2.593 9.731.708 10.328.078.754.102 1.439.137 2.194-2.765 1.672-6.451 2.303-9.534 3.552-.993-.415-1.846-1.078-2.738-1.672.296-.631 1.036-1.855.895-2.594-.461-2.418 2.178-3.62 2.8-6.076.885-3.496 2.113-6.325 4.304-9.249 1.811.223 1.459.798 3.085.03"/><path fill="#f1eee5" fill-opacity=".286" d="M703.554 410.328c.364.127.303.112.596.395l-.167.656c-.461 1.692.011 3.185.298 4.882l-.335.713-.295-.706c-1.284-3.839-1.548 3.741-1.557 3.977-1.295 1.646-1.323 1.632-1.874 3.574l-.178-.89c-.152-1.012-.596-3.293-2.231-2.605-1.738.732-1.864 3.185-2.287 4.785l-2.009-.886c-.57-.727-5.176-3.012-6.167-3.477l.103-1.067c.215-.209 2.818-2.823 2.777-2.806 2.169-.884 2.207-5.472 5.031-4.343 2.725 1.09 6.232-.899 8.295-2.202"/><path fill="#f1d5aa" fill-opacity=".749" d="M541.837 355.428c2.04-1.25.084-1.941 4.204-3.55 6.027-2.354 6.686-3.695 13.611-4.061-1.497.591-3.989.956-4.36 2.439-.717 2.867 4.683 2.929 5.971 1.996 2.264-1.641 2.897-2.376 5.237-3.761-.723 4.57-8.434 6.51-8.203 6.264-.002.08-.015.144.064.156 2.225.349 7.529.793 9.675.99 2.439.058 4.778.02 7.193.056l.777 1.16c-4.986.203-31.842-1.036-33.354-.518-.487-.539-.443-.515-.815-1.171"/><path fill="#f1eee5" fill-opacity=".678" d="M610.847 428.326c1.6.421 5.881 3.987 7.265 5.3-1.333 1.427-1.334.337-1.601 2.402-.375-.137-4.185-4.003-5.044-.028-.479 2.216-1.535 3.624-3.928 2.838-2.367-.779-1.318-.711-3.777-.122-4.574-1.063-4.53-6.15-4.474-8.441 1.562.292 3.899.914 5.194-.214 2.588-2.256 3.669-.648 6.365-1.735"/><path fill="#f3eee5" fill-opacity=".365" d="M692.277 603.791c.907.755.295 2.408.248 3.718-.212 2.376-.632 3.724-.296 6.164 1.334 9.665 4.266-3.733 5.918-3.912 2.43-.264 1.879 4.683 1.887 5.581-3.022.593-6.777 6.624-9.623 9.179-1.229-1.163-2.296-2.155-3.467-3.389-.252-3.599-.135-8.126-.096-11.804.696-.467 2.689-1.96 3.403-1.865 2.734.366 1.085-.953 2.026-3.672"/><path fill="#f4c57d" fill-opacity=".98" d="M703.333 646.441c.571 8.009.43 13.412.802 20.996 3.58 2.517 6.709 5.04 10.145 7.774l-.386.99c-1.976-1.029-3.504-2.003-5.401-3.058-1.194-1.06-2.965-1.916-4.367-2.846-.061 3.451-.036 6.558-.011 10.006-.439 5.484-.181 5.583-1.195 11.519-.38-2.693-.658-5.382-1.015-8.069-.673-5.058.235-9.812.095-15.135-3.102-2.137-6.97-5.074-10.161-6.993l.363-.912c1.43.783 5.733 3.92 7.469 4.134.32.039.691-1.544.806-1.855.449-1.215 1.529-.106 1.475-1.983.02-5.012.139-9.669 1.381-14.568"/><path fill="#f1eee5" fill-opacity=".443" d="M482.529 453.955c1.088-2.023 8.622 4.208 10.555 5.193-3.386 3.867-3.075.996-4.99 1.631l-.248.272c-2.716.149-2.502 2.164-4.085 4.802l-.585.995-.012-.169c.024 1.092-.097 5.308.284 5.965 1.527.799 2.812 4.531 6.056 3.359 2.744-.992 1.953 2.651 4.719-1.846 3.062-4.977-.219-9.061 1.815-12.926.655.533 1.206.979 1.826 1.554-.08 1.717-.584 4.418-.601 5.967-.118 10.701-7.786 8.518-7.825 8.553.01.173 1.145 2.656 1.373 3.433-3.204-1.668-5.92-3.22-8.221-6.044-.25-6.29-.119-14.415-.061-20.739"/><path fill="#f1eee5" fill-opacity=".184" d="M703.998 444.447c.153-4.232-.613-4.201 2.761-5.353 3.042-1.038 3.25-3.464 6.74-.336-.237.771-.352.735.224 1.333l.01.152c-2.434.806-1.709 1.926.512 2.341 1.662.311 1.468 2.995 3.453 2.686l.244.159c.269 1.463.207 1.772.983 2.994l.069 1.621c-.147.125-.49.465-.718.536-.892-1.555-.447-2.25-3.062-3.794-6.185-3.651-.027 6.992-8.476 5.197-1.771-.648-1.95-.36-2.57-1.975 1.671-1.398 3.634-4.917.37-5.452z"/><path fill="#f1eee5" fill-opacity=".494" d="M544.178 343.195c3.376-.289 14.958 2.355 18.477 3.427-1.189.399-1.897.59-3.003 1.195-6.925.366-7.584 1.707-13.611 4.061-4.12 1.609-2.164 2.3-4.204 3.55-1.218-1.237-2.201-2.237-3.322-3.576 1.345-2.982 3.293-4.178 4.545-7.183.396-.949.769-.402 1.517-.93z"/><path fill="#f1eee5" fill-opacity=".749" d="M617.421 462.624c.313-.85.962-2.961 1.673-3.507.689-.092 7.463 4.344 8.864 5.052l-.053.412c-.485 1.298-.604 2.183-1.698 3.098-4.318 3.613-3.529 7.361-5.114 11.045-.278-.178-2.838-2.398-3.36-2.81l-.123-.598c-.054-2.963.177-10.169-.189-12.692"/><path fill="#f4c57d" fill-opacity=".949" d="M702.094 420.245c.009-.236.273-7.816 1.557-3.977l.295.706c.174 5.273-1.71 11.312 2.554 14.596l.365.185c1.021.879 1.859 1.516 2.941 2.312.503.468.692.645 1.245 1.042 2.876 1.968 3.963 2.663 6.403 5.11-1.563-.476-2.446-.827-3.955-1.461-3.49-3.128-3.698-.702-6.74.336-3.374 1.152-2.608 1.121-2.761 5.353-.043 1.783-.02 3.368.004 5.137l-.864-.946c-.388-3.855-.208-8.207-.244-12.127.581-6.403-.254-4.887-5.483-8.581-1.971-1.023-3.202-1.675-5.045-2.94l1.149-.767 2.009.886c1.196.784 1.606 1.026 2.898 1.625.43.277 3.722 3.138 3.964 1.921.435-2.186.122-6.158-.292-8.41"/><path fill="#f3ece1" fill-opacity=".231" d="M704.281 416.261c.728-.024 1.366-.331 2.07-.488 1.929 1.104.098 3.05 4.914 4.976 1.512 2.146 2.677.158 3.919 1.409 4.025 4.054-1.01 5.766-1.181 6.369.099.353.369.453.568.748-.811 1.662-3.752-3.313-6.194-2.567-2.468.755-1.963 3.023-1.877 4.862-4.264-3.284-2.38-9.323-2.554-14.596z"/><path fill="#f1eee5" fill-opacity=".729" d="m605.083 449.752 3.028 1.848.138.825c.907 5.73.39 4.919 3.507 9.495.05 1.723-.247 10.365 4.151 8.604l.197 1.013.006 1.898c-4.44-.422-5.831-3.629-9.392-5.422-2.301-.735-2.62-1.964-1.889-4.3 1.129-3.61.438-9.933.254-13.961"/><path fill="#f3eee5" fill-opacity=".098" d="M585.298 610.397c-.693-4.764-1.28-5.464 4.457-6.765 5.847-1.326 7.684 4.975 12.443 5.07 1.844.037 1.617 2.171 1.337 3.38-1.991-.082-5.881.197-7.222-.111-3.337-1.179-7.528-1.324-11.015-1.574"/><path fill="#f1d5aa" fill-opacity=".71" d="M658.366 451.957c2.785-3.585 1.509-2.346 3.534-5.807l.734 1.373c4.457 8.391 18.874-.422 25.668 2.272 2.802 1.111 6.569 1.245 9.635 1.515l-.449 1.074c-10.682.075-22.466.983-33.246.474-2.034-.096-1.899-.42-3.786.53-1.007-.504-1.441-.594-2.09-1.431"/><path fill="#f1eee5" fill-opacity=".259" d="m482.638 429.908.525-.103c-.357 1.326-.58 4.066.031 5.153-1.548-.511 7.977-.828 6.841-.759 1.954.938 5.368 3.706 7.447 4.998.499 1.015 2.195 3.304 2.096 3.636-.952.478-4.033 2.179-4.821 2.408-2.463.713-7.307-1.682-7.502-4.495-.234-3.395-.996-4.354-4.268-4.228l-.373-.801c-.167-2.056-.205-3.755.024-5.809"/><path fill="#f4c57d" fill-opacity=".945" d="M703.128 352.587c1.589 7.263.335 13.342.881 20.634 1.401 1.068 11.315 7.931 11.446 8.605-.362.582-3.364-1.506-3.689-1.715-2.631-1.695-5.201-3.476-7.815-5.199-.014 6.059-.344 12.52-.353 18.426l-1.078-.33c-.502-7.177-.532-12.287-.283-19.526-1.692-1.192-3.265-2.316-5.062-3.355-.568-.62-.459-.531-1.172-.975-1.123-.704-5.358-3.38-5.748-4.349.032-.155-.006-.081.133-.214l.202.213.362-.018c2.449 1.198 9.451 7.992 9.762 4.116.129-1.608 2.358-2.927 1.579-6.9-.336-1.713.595-7.545.835-9.413"/><path fill="#f1eee5" fill-opacity=".557" d="M627.905 464.581c2.534 1.3 3.267 1.462 5.457 3.191-1.626.768-1.274.193-3.085-.03-2.191 2.924-3.419 5.753-4.304 9.249-.622 2.456-3.261 3.658-2.8 6.076.141.739-.599 1.963-.895 2.594-1.556-1.111-3.315-2.163-4.785-3.278.106-2.213.2-4.252.24-6.469.522.412 3.082 2.632 3.36 2.81 1.585-3.684.796-7.432 5.114-11.045 1.094-.915 1.213-1.8 1.698-3.098"/><path fill="#f3eee5" fill-opacity=".318" d="M706.738 451.983c8.449 1.795 2.291-8.848 8.476-5.197 2.615 1.544 2.17 2.239 3.062 3.794.228-.071.571-.411.718-.536.123 1.585.117 1.977-.045 3.573-1.247.214-1.088 1.093-2.511 1.638-.861.33-2.113 2.364-2.663 3.083-.334.437-.691-.412-1.418.305-3.323-1.956-4.145-3.763-5.619-6.66"/><path fill="#f3ece1" fill-opacity=".086" d="M716.993 418.725c3.884 2.722 2.295 4.129 2.005 9.582-2.676 3.129-4.822 4.517-7.947 6.802-.553-.397-.742-.574-1.245-1.042.398-1.034 1.738-3.739.285-4.618-2.457.229-2.944-.403-3.226 2.306l-.365-.185c-.086-1.839-.591-4.107 1.877-4.862 2.442-.746 5.383 4.229 6.194 2.567-.199-.295-.469-.395-.568-.748.171-.603 5.206-2.315 1.181-6.369-1.242-1.251-2.407.737-3.919-1.409.869-.586 3.664-1.938 4.731-1.966z"/><path fill="#f1eee5" fill-opacity=".867" d="M608.111 451.6c1.139.644 2.198 1.387 3.403 1.906 1.5 1.047 3.084 1.978 4.614 2.991a155 155 0 0 0-.035 6.546c-.129 2.436-.156 5.035-.186 7.481-4.398 1.761-4.101-6.881-4.151-8.604-3.117-4.576-2.6-3.765-3.507-9.495z"/><path fill="#f1eee5" fill-opacity=".4" d="M598.849 545.563c.119 2.505.096 4.461.014 6.946 3.128 1.314 2.473.052 5.297 2.329a5.04 5.04 0 0 0 4.09 1.026c1.454-.266 2.543-1.186 3.747-1.987.63.464 1.211.898 1.858 1.342 1.093 2.827 1.697 1.799 2.262 3.025-.198 1.685-5.646 3.897-8.329 2.817-5.537-2.231-4.79-.803-7.612-6.518-.579-.623-.752-.691-1.507-1.228-.078-2.779-.179-4.969.18-7.752"/><path fill="#eeca8e" fill-opacity=".867" d="M482.908 393.662c3.431.992 15.823 9.97 16.724 9.857.449-.377.483-1.119.588-1.676q.115-.6.241-1.2l.505-.261c-.181 6.399.733 5.382 7.011 8.903.999.931 5.172 3.576 6.455 4.223a25 25 0 0 0 2.634 1.829l-.168 1.022c-3.403-1.554-12.272-7.441-16.053-9.766.181 6.614.469 16.55.137 22.968l-1.11-.644c.259-7.085.125-16.267.138-23.533-5.757-3.574-11.144-7.097-17.086-10.388z"/><path fill="#f3eee5" fill-opacity=".384" d="m602.307 534.9.123-.614c.35-1.801 1.345-2.608.514-4.284l-.184-.366c.78-.043 2.554.127 3.466.137.344-.324.531-.823.981-1.006l-.005.002c1.214 2.757 6.252 10.495 8.976 5.498-.014.501-.534 7.438-.645 7.675-1.054.711-.813-.691-1.749.303-1.356-.826-6.523-3.993-7.392-4.872 1.63-5.119-1.875-4.77-2.885-1.722z"/><path fill="#f1eee5" fill-opacity=".725" d="M489.636 361.882c4.21-2.374 4.041-7.03 8.865-8.294.555-.146 5.793 3.585 5.871 3.724-.762 7.125-2.001 7.97-6.1 13.04-.282-.187-.266-.203-.51-.474l-.027-.97c.005-3.292 5.219-3.429 2.018-8.514-4.944-7.855-5.533 1.999-7.97 2.252l-.899.087-.977 1.324-1.347-.366.114-.217c.34-.657.481-1.06.962-1.592"/><path fill="#f1eee5" fill-opacity=".09" d="M616.511 436.028c.267-2.065.268-.975 1.601-2.402 1.915 1.315 6.75 4.824 8.534 5.909.353 1.121.7 2.101 1.102 3.203-.935 1.583-6.423 7.484-6.479 2.27-.01-.889-.877-2.814-2.045-2.488-1.395.389-.775-1.456-1.72-3.048l.023-.246c.189-1.802.186-1.863-1.016-3.198"/><path fill="#f1eee5" fill-opacity=".525" d="M497.864 462.785c1.166.672 1.263.682 2.182 1.575l.012.44c-.125 3.462 1.856 11.051-.343 12.91-3.587-4.725-3.441 2.899-4.637 4.69l-.442.674c-1.411-.707-2.665-1.256-3.825-2.336-.228-.777-1.363-3.26-1.373-3.433.039-.035 7.707 2.148 7.825-8.553.017-1.549.521-4.25.601-5.967"/><path fill="#f4c57d" fill-opacity=".949" d="M604.708 572.23c1.899.951 3.16 1.886 4.927 3 1.133.748 5.108 3.219 6.16 3.531.26-.304.523-1.63.624-2.009 1.959 1.581-.266 2.991 2.083 3.164.568.042 2.857 2.203 4.049 2.882 1.245 1.125 2.518 1.737 3.988 2.553 3.131 2.529 4.119.936 6.663-1.504l.364-.344a547 547 0 0 1-.115 10.483c-1.451-1.876-.802-2.472-2.674-3.945-3.575-2.814-7.589-4.975-11.546-7.213-.19-.108-.509.187-.616.289-2.815 2.602-2.338-.562-2.564-1.893-.381-1.156-3.064-2.352-4.057-2.973-2.751-1.723-5.423-3.31-8.124-5.071z"/><path fill="#f1eee5" fill-opacity=".349" d="M710.556 463.554c-2.335.746-10.23.297-12.308-1.303-4.018-3.094 4.128-5.937 6.246-5.426 1.434.346 1.456.327 2.949.09.704.56 2.124 1.583 2.655 2.219.044 1.074-.286 3.81.458 4.42"/><path fill="#f1eee5" fill-opacity=".263" d="M504.124 443.577c3.749 2.085 7.812 5.283 11.669 7.133-.134.775-.239 1.613-.461 2.279-.464 1.389-1.08 2.431-2.495 1.223-.301-.257-.933-.749-1.365-.848-.878-.201-1.633-.706-2.499-.925-.979-.209-1.969-.464-2.72-1.186-.631-.607-1.563-.977-2.09-1.709-.324-.449-.675-.993-1.135-1.324-.166-.119-.093.118-.203-.244-.371-1.107.135-2.268.695-3.213z"/><path fill="#f1eee5" fill-opacity=".6" d="m490.884 362.733.899-.087c2.437-.253 3.026-10.107 7.97-2.252 3.201 5.085-2.013 5.222-2.018 8.514l.027.97c-.927-.601-2.686-1.746-3.416-2.494-.12-1.458-2.259-3.896-3.462-4.651"/><path fill="#f1eee5" fill-opacity=".259" d="M620.07 559.171c3.861 2.317 8.034 5.155 11.898 7.322-2.708 4.812-2.269 3.259-8.353 1.65-4.234-4.429-5.782-3.664-3.545-8.972"/><path fill="#f4c57d" fill-opacity=".933" d="m605.933 511.362.467.146c1.125.71 2.144 1.233 3.272 1.915q1.056.604 2.075 1.269c1.373.85 2.458 1.557 3.889 2.311 2.272-2.475 1.327.504 2.457 1.711 1.69 1.203 7.044 4.808 8.715 5.755l.627.596-.272 1c-1.995-1.001-5.453-3.67-7.654-4.35-.104-.032-.367.453-.39.57-.229 1.184-.988 2.57-2.41 2.081-.612-.244-.767-3.345-.967-3.649l-.215.29c-1.966 2.464-2.203-1.414-2.509-2.513-.84-3.02-4.718-3.631-7.412-5.458-.154-.254-.239-.431-.444-.652z"/><path fill="#f1eee5" fill-opacity=".741" d="M697.411 427.93c5.229 3.694 6.064 2.178 5.483 8.581-.73.196-.827.219-1.271.962a14.65 14.65 0 0 0-2.024 6.028c-.176 1.655-.461 3.002-1.016 4.544a66 66 0 0 1-3.359-2.297c.019-.055 1.703-6.137 1.568-6.015.284.086.109 1.214.345 1.548l.055-.013c.442-.634.956-3.456 1.285-4.512.37-.243.925.238 1.57-.081.814-1.165.371-3.584-.925-3.825-.931-.173-1.483-3.739-1.711-4.92"/><path fill="#f1eee5" fill-opacity=".8" d="M609.635 575.23c4.618-5.538.845-6.869 2.794-10.211 3.234-5.544 3.063-.51 3.457 2.203.021 3.16-.179 6.565.533 9.53-.101.379-.364 1.705-.624 2.009-1.052-.312-5.027-2.783-6.16-3.531"/><path fill="#f1eee5" fill-opacity=".788" d="M611.747 514.692c-.242-.995-.439-1.635-.075-2.687 1.694-4.901-2.925-9.011 4.349-10.608l-.048 2.331c-.072 3.89.372 9.395-.337 13.275-1.431-.754-2.516-1.461-3.889-2.311"/><path fill="#f1eee5" fill-opacity=".498" d="M692.525 607.509c5.466 1.914 1.756-4.078 8.393 1.985-.624 3.762 2.516 3.59-.091 5.112-.304.178-.472 7.574-.574 8.949-.418-1.792-.36-2.243-.297-4.121q.084-2.044.078-4.092c-.008-.898.543-5.845-1.887-5.581-1.652.179-4.584 13.577-5.918 3.912-.336-2.44.084-3.788.296-6.164"/><path fill="#f3eee5" fill-opacity=".286" d="M659.014 441.419c1.016.334 4.569 2.355 4.779 3.229-.521.506-.744.279-1.893 1.502-2.025 3.461-.749 2.222-3.534 5.807-1.401-.822-3.853-2.134-4.98-3.218.724-1.387-.77-1.356 1.108-2.471 2.902-1.723 4.01-1.587 4.52-4.849"/><path fill="#f1eee5" fill-opacity=".537" d="M598.706 511.425c1.944-2.421 4.641-.107 6.456.959.205.221.29.398.444.652-.118 1.854-.107 3.435-.096 5.28-5.432-2.969-2.767 4.687-6.879 1.284z"/><path fill="#f4c57d" fill-opacity=".914" d="M483.793 452.017a84 84 0 0 1 2.489 1.592c2.464 1.537 5.566 3.029 8.285 4.732.957.927 4.098 3.353 5.409 2.433l.709-.083.209.897c.355 1.658 6.69 5.595 8.322 6.695.946.71 1.843 1.463 2.741 2.232l-.701.807c-2.201-1.688-5.389-3.512-7.741-5.068-.955-.899-2.225-1.507-3.469-1.894-.919-.893-1.016-.903-2.182-1.575-.62-.575-1.171-1.021-1.826-1.554-1.032-.877-1.821-1.348-2.954-2.083-1.933-.985-9.467-7.216-10.555-5.193l.054-1.314z"/><path fill="#f1eee5" fill-opacity=".031" d="m633.884 532.36.742.086c-.056 2.955.024 5.777-.177 8.749-.996.066-.673.211-.687 1.031-.017 1.032-3.256 2.532-3.936 3.03-2.507 1.835-4.275 2.229-7.369 2.452-1.243-.479-2.475-1.518-3.488-2.37 2.57-.159 4.557-.396 7.114-.897 1.143-.972 2.477-2.14 3.622-3.121 1.643-1.409 3.742-.339 4.262-1.879-.572-2.939-.247-3.827-.083-7.081"/><path fill="#f3eee5" fill-opacity=".839" d="M515.672 396.103c-.071-.068.662.65.639.602 1.564 3.282.703 15.155.755 18.632a25 25 0 0 1-2.634-1.829c.912-3.334 1.672-5.169-1.094-7.832-.78-.751-1.094-4.491.115-4.941 1.874-.698 1.889-2.919 2.219-4.632"/><path fill="#f1eee5" fill-opacity=".718" d="M485.255 374.882c.453 2.205.881 3.598 1.593 5.72 1.985 1.316 9.61 7.534 8.871 1.339l.409.392c2.564 3.844 4.214 6.587-2.666 5.824-2.662-.295-2.978-4.727-5.938-4.917-2.009-.129-1.272 5.885-1.491 5.986-2.919-.412 1.852-6.806-1.284-10.767.262-1.211.364-2.351.506-3.577"/><path fill="#f1eee5" fill-opacity=".765" d="M494.567 458.341c1.68-4.473 1.341-4.803 1.928-9.33.113-.875 1.92-2.232 3.01-2.561.037 3.649-.129 11.32.471 14.324-1.311.92-4.452-1.506-5.409-2.433"/><path fill="#f1eee5" fill-opacity=".592" d="M622.551 582.798c-.407-2.218-1.287-1.863-1.909-3.097-3.539-7.03 6.517-4.967 6.969.834.156 2.004-.461 2.946-1.072 4.816-1.47-.816-2.743-1.428-3.988-2.553"/><path fill="#f3eee5" fill-opacity=".02" d="M634.55 483.781c-.01 2.563.027 5.85.089 8.425-1.984 1.988-7.787-3.557-9.623-4.873 3.083-1.249 6.769-1.88 9.534-3.552"/><path fill="#f3eee5" d="M612.03 447.883c-2.255-9.368 3.115-12.232 3.786-9.789.294 3.309.188 6.236.26 9.526l-.12.568c-1.743.631-1.985.344-3.926-.305"/><path fill="#f3eee5" fill-opacity=".537" d="M530.445 355.906c.359.23 4.758 4.786 5.686 5.674-.268 3.118-.288 3.809-4.636 3.64-1.828-.452.036-2.168-.218-2.956-.674-2.099-3.14-2.071-3.784-4.5-.335-1.265-.013-1.242.626-2.16z"/><path fill="#f1eee5" fill-opacity=".482" d="M598.908 488.456c.255.539.574 1.828.978 2.078 4.662-.266 2.17 2.191 7.097-.88 1.323.611 2.458 1.356 3.49 2.375-2.567.418-2.16 1.6-.992 3.5 3.308-2.18.328-1.206.992-3.5l1.173.471c.829 4.996-1.265 6.759-4.382 2.178-.366-.538-.338-2.532-1.995-1.135-2.192 1.848-3.435-.311-5.84-1.397l-.533-.237z"/><path fill="#f4c57d" fill-opacity=".965" d="M616.101 453.418c.821-.594.758-.668 1.665-.654.207 1.603-.013 3.086 1.23 3.902 3.358 2.209 7.033 4.838 10.364 7.028l-1.402.475c-1.401-.708-8.175-5.144-8.864-5.052-.711.546-1.36 2.657-1.673 3.507-.041-.596-.088-3.858-.352-4.194-.213.01-.788 3.92-.976 4.613q-.052-3.273.035-6.546c-1.53-1.013-3.114-1.944-4.614-2.991l1.191-.71c1.746 1.094 2.042 2.356 3.396.622"/><path fill="#f3eee5" fill-opacity=".051" d="M696.003 369.152c.713.444.604.355 1.172.975.519 2.623-1.194 10.166-2.567 10.622l-.06-.061c-.488-1.885 2.12-8.883-.749-9.568-2.023-.483-1.234 6.883-1.346 8.418-3.846-6.966-4.898-8.837 3.55-10.386"/><path fill="#f1d5aa" fill-opacity=".733" d="M616.021 501.397c.586-.332.662-.341 1.132-.816.822 4.209.241 8.943 2.292 12.432 1.111 1.888.987 4.778-1.352 5.701-1.13-1.207-.185-4.186-2.457-1.711.709-3.88.265-9.385.337-13.275z"/><path fill="#f1eee5" fill-opacity=".847" d="M562.655 346.622c1.27.573 3.497 1.08 4.949 1.598l-.607.24-.497.031c-2.34 1.385-2.973 2.12-5.237 3.761-1.288.933-6.688.871-5.971-1.996.371-1.483 2.863-1.848 4.36-2.439 1.106-.605 1.814-.796 3.003-1.195"/><path fill="#f1eee5" fill-opacity=".694" d="m494.636 483.074.442-.674c1.196-1.791 1.05-9.415 4.637-4.69-1.498 6.453.649 5.491 8.05 4.644 1.135-.13 1.939.554 2.973.86l.592.18c-4.766.443-12.05 1.326-16.7.241z"/><path fill="#f1eee5" fill-opacity=".584" d="M485.462 373.412c.938.813 6.752 5.772 7.132 6.225-2.499 1.726.82 5.328 2.614 2.091l.511.213c.739 6.195-6.886-.023-8.871-1.339-.712-2.122-1.14-3.515-1.593-5.72q.097-.737.207-1.47"/><path fill="#eeca8e" fill-opacity=".906" d="M697.937 451.31c.39-.103 1.317-.256 1.584-.604-.997-2.311-11.633-7.287-11.486-8.869.638-.199 1.313-.255 1.961-.415.402.522.725.908 1.156 1.407 1.139.839 2.013 1.483 3.22 2.236l.852.683a66 66 0 0 0 3.359 2.297c1.005.73 1.455 1.088 2.365 1.944-1.893 1.448 3.37 3.771 5.083 5.578l.584.604c-.977-.039-1.853-.112-2.827-.193-3.552-1.32-3.051-1.311-6.3-3.594z"/><path fill="#f1eee5" fill-opacity=".863" d="M698.583 448.045c.555-1.542.84-2.889 1.016-4.544a14.65 14.65 0 0 1 2.024-6.028c.444-.743.541-.766 1.271-.962.036 3.92-.144 8.272.244 12.127-.393 1.806-.305 2.126-2.19 1.351-.91-.856-1.36-1.214-2.365-1.944"/><path fill="#f3eee5" fill-opacity=".576" d="M510.488 378.476c2.592-2.079 3.582-7.679 6.306-5.468 5.042 4.093-.543 6.234-2.207 7.914-1.341-.852-2.729-1.639-4.099-2.446"/><path fill="#f3eee5" fill-opacity=".153" d="M686.888 595.398c1.303-1.112 2.791-2.529 4.623-2.113.871.198.813-.427 1.475-.464.265.132.181.033.279.273-.094.756-2.661 2-1.974 2.827 1.685.264 3.427-3.41 5.127-1.004-1.049.302-4.186 3.348-4.567 4.067.198.333 1.287 1.318 1.56 1.6l-.309.001c-3.279.045-3.2-.62-6.118-2.345a84 84 0 0 0-.096-2.842"/><path fill="#f3ece1" fill-opacity=".702" d="M677.782 440.981c3.166-.012 6.261.062 9.412.075 2.161 7.306-5.277 2.217-9.447 2.856-.644.099-4.129-1.427.035-2.931"/><path fill="#f3eee5" fill-opacity=".259" d="M509.216 468.283c3.364-4.131 2.352-4.492 7.222-3.888-.066 1.205-.052 1.843-.001 3.069-.484 4.205-1.004 5.152-4.48 3.051a55 55 0 0 0-2.741-2.232"/><path fill="#f1eee5" fill-opacity=".69" d="m482.614 435.717.373.801c.421 2.406 2.397 1.314 1.771 4.48-.378 1.913 2.475 8.545.386 9.539-.464.489-.901.979-1.351 1.48l-1.21.624c-.153-4.841-.254-12.131.031-16.924"/><path fill="#f3eee5" fill-opacity=".729" d="m566.5 348.491.497-.031c2.425 4.796-.83 3.361 6.157 2.471l-.338.45c-2.502 1.042-4.719 1.438-4.78 4.52-2.146-.197-7.45-.641-9.675-.99-.079-.012-.066-.076-.064-.156-.231.246 7.48-1.694 8.203-6.264"/><path fill="#f3eee5" fill-opacity=".176" d="M606.889 550.712c1.734.952 3.283 2.14 5.108 3.165-1.204.801-2.293 1.721-3.747 1.987a5.04 5.04 0 0 1-4.09-1.026c-2.824-2.277-2.169-1.015-5.297-2.329 2.734-.783 5.231-1.108 8.026-1.797"/><path fill="#f4c57d" d="m703.138 448.638.864.946.166.424c.62 1.615.799 1.327 2.57 1.975 1.474 2.897 2.296 4.704 5.619 6.66q.843 1.081 1.673 2.172c-1.717-.603-2.329-.864-3.932-1.681-.531-.636-1.951-1.659-2.655-2.219a65 65 0 0 1-.828-.744l-.584-.604c-1.713-1.807-6.976-4.13-5.083-5.578 1.885.775 1.797.455 2.19-1.351"/><path fill="#f4c57d" fill-opacity=".875" d="M504.194 367.336c6.372-8.134 7.74-10.282 18.429-12.806l-1.016 1.369c-8.403 2.179-12.698 6.062-17.213 13.577-.438.729-1.076 2.992-1.684 4.275l-1.207-1.015c.814-1.37 2.282-3.887 2.691-5.4"/><path fill="#f1eee5" fill-opacity=".094" d="M690.411 624.521c2.846-2.555 6.601-8.586 9.623-9.179a93 93 0 0 1-.078 4.092c-1.634.752-5.149 4.422-8.039 6.062z"/><path fill="#f1eee5" fill-opacity=".761" d="m504.372 357.312.379.83c2.577 4.961-2.477 4.616-.557 9.194-.409 1.513-1.877 4.03-2.691 5.4-1.227-.808-2.074-1.491-3.231-2.384 4.099-5.07 5.338-5.915 6.1-13.04"/><path fill="#f1eee5" fill-opacity=".345" d="M620.702 604.975c3.2-.836 3.025-2.379 4.781-2.566 3.433-.366 4.09 5.344 3.491 7.314-2.83-1.663-5.396-2.995-8.272-4.748"/><path fill="#eeca8e" fill-opacity=".667" d="M497.482 439.197c1.45.911 2.103 1.307 3.419 2.386.01 4.676.425 9.483-.018 14.358a49 49 0 0 0 .109 3.908l-.307.842-.709.083c-.6-3.004-.434-10.675-.471-14.324.296-1.578.177-1.986.073-3.617.099-.332-1.597-2.621-2.096-3.636"/><path fill="#f3eee5" fill-opacity=".18" d="M687.088 601.229c2.176.09 3.556 1.249 5.189 2.562-.941 2.719.708 4.038-2.026 3.672-.714-.095-2.707 1.398-3.403 1.865.008-2.89.091-5.226.24-8.099"/><path fill="#f1eee5" fill-opacity=".722" d="M523.89 348.061c1.773 2.01 3.185 3.741 5.054 5.704-1.317.17-3.504.443-4.808.509.132-1.139-.211-1.928-1.913-2.279-1.873-.387-2.819-1.309-1.865-3.635.181-.442 2.808-.287 3.532-.299"/><path fill="#f3eee5" fill-opacity=".082" d="M718.925 448.423c-.776-1.222-.714-1.531-.983-2.994l-.244-.159c-1.985.309-1.791-2.375-3.453-2.686-2.221-.415-2.946-1.535-.512-2.341l-.01-.152c-.576-.598-.461-.562-.224-1.333 1.509.634 2.392.985 3.955 1.461.621.147 1.074.279 1.682.469-.021 2.673-.028 5.06-.211 7.735"/><path fill="#f1eee5" fill-opacity=".259" d="M598.905 484.433a95 95 0 0 1 8.078 5.221c-4.927 3.071-2.435.614-7.097.88-.404-.25-.723-1.539-.978-2.078q.022-2.011-.003-4.023"/><path fill="#f3eee5" d="m700.918 609.494.57.21c1.583.557 1.061 1.431.957 3.038-.1 1.554.269 13.545-.19 13.991-.206.045-.072.028-.44.032-.554-1.39-.808-1.894-1.562-3.21.102-1.375.27-8.771.574-8.949 2.607-1.522-.533-1.35.091-5.112"/><path fill="#eeca8e" fill-opacity=".208" d="m603.535 612.082.735.125c2.227.675 5.673-.892 7.524.278.386.244-.306.459-.537.483-1.1.112-2.201.061-3.315.047-1.369.258-.832.303-.68 1.577l-.039-.079c.047.411.128.613-.212.901-.32.009-.194.056-.395-.072-.148-.365-.045-.756-.183-1.119l-.107-.02c-1.267.987-1.212.809-2.844.71-.427-.768-.54-.767-.529-1.633-2.769-.431-6.607-.282-9.411-.116a73 73 0 0 1-2.87-.411l-.268-.135c.478-.497 4.873-.604 5.909-.647 1.341.308 5.231.029 7.222.111"/><path fill="#f3eee5" fill-opacity=".459" d="M598.926 447.917c2.704-.889 2.58-.468 5.121.886-.114 4.817-.325 4.172-5.157 5.203a145 145 0 0 1 .036-6.089"/><path fill="#f3eee5" fill-opacity=".847" d="M568.036 355.901c.061-3.082 2.278-3.478 4.78-4.52-4.029 4.153-1.226 4.948 3.006 2.802 1.686-.855 2.293-.104 4.324-.421 1.129.382 1.332.565 2.377 1.193l.478.283c-2.344 1.008-5.185.747-7.772.719-2.415-.036-4.754.002-7.193-.056"/><path fill="#f3eee5" fill-opacity=".875" d="M501.048 393.306c.881 2.216.967 7.127 2.165 8.18.131.03.069.038.185-.022l.337-.486c1.533 1.25-.329 4.341-.324 4.526 1.02-.044 3.928 2.419 4.566 3.781-6.278-3.521-7.192-2.504-7.011-8.903.046-2.366.028-4.706.082-7.076"/><path fill="#eeca8e" fill-opacity=".345" d="m616.146 529.329.471.61c.671.803.952 1.791 1.371 2.733.619 4.78-.714 7.074-.758 11.717-1.57-.797-1.994-1.111-3.446-2.144.936-.994.695.408 1.749-.303.111-.237.631-7.174.645-7.675q-.044-2.468-.032-4.938"/><path fill="#f3eee5" fill-opacity=".031" d="M628.145 525.18c4.264-.457 1.948-1.335 2.634-3.387.094-.281 2.531-1.023 3.843-2.235.047 2.658.032 4.801-.089 7.458-1.565-.463-1.794-2.238-3.786.402l-.39-.237c-.742-.703-1.468-1.311-2.212-2.001"/><path fill="#f1d5aa" fill-opacity=".729" d="M629.36 463.694c.54.026 1.825.114 2.318.33l.097.133c-1.668 1.699 2.252 1.391 3.139 2.258.135 4.016.37 22.776-.275 25.791a329 329 0 0 1-.089-8.425c-.035-.755-.059-1.44-.137-2.194.008-1.16.015-2.181-.034-3.342.057-2.055 1.099-10.601-1.017-10.473-2.19-1.729-2.923-1.891-5.457-3.191l.053-.412z"/><path fill="#f3eee5" fill-opacity=".137" d="m634.684 517.205-.062 2.353c-1.312 1.212-3.749 1.954-3.843 2.235-.686 2.052 1.63 2.93-2.634 3.387l-.71-.115-.627-.596.121-.492c1.382-5.856 3.714-2.837 7.755-6.772"/><path fill="#f3eee5" fill-opacity=".145" d="M704.126 670.297c1.402.93 3.173 1.786 4.367 2.846.354 3.045-.199 1.851-1.852 4.044-.25.331-.827.827-1.21.37-.844-.958-.199-3.812-.685-4.55-.258.627.038 4.918-.631 7.296-.025-3.448-.05-6.555.011-10.006"/><path fill="#f1eee5" fill-opacity=".918" d="M612.03 447.883c1.941.649 2.183.936 3.926.305.105 1.756.093 3.473.145 5.23-1.354 1.734-1.65.472-3.396-.622l-1.417-1.276c.373-1.385.509-2.22.742-3.637"/><path fill="#f3eee5" fill-opacity=".945" d="M573.631 350.489c2.483 1.079 4.188 1.863 6.515 3.273-2.031.317-2.638-.434-4.324.421-4.232 2.146-7.035 1.351-3.006-2.802l.338-.45z"/><path fill="#eeca8e" fill-opacity=".702" d="M615.659 602.387c.409-2.795-.105-16.307.76-17.245l.162.01c.275.231.456 3.252.494 3.665.008 4.929.223 9.425.559 14.321z"/><path fill="#f1eee5" fill-opacity=".02" d="M710.098 459.134c1.603.817 2.215 1.078 3.932 1.681 1.295-.114 2.547 1.772 3.466 2.698-1.642.532-2.914.447-4.629.648l-2.311-.607c-.744-.61-.414-3.346-.458-4.42"/><path fill="#f3eee5" fill-opacity=".137" d="M695.524 425.109c.423-1.6.549-4.053 2.287-4.785 1.635-.688 2.079 1.593 2.231 2.605l.178.89c-.589 1.443-.794 1.662-1.798 2.915-1.292-.599-1.702-.841-2.898-1.625"/><path fill="#f1d5aa" fill-opacity=".824" d="M616.093 463.043c.188-.693.763-4.603.976-4.613.264.336.311 3.598.352 4.194.366 2.523.135 9.729.189 12.692l-.111-.208c-.75-1.373-.91-2.083-1.395-3.571l-.197-1.013c.03-2.446.057-5.045.186-7.481"/><path fill="#eeca8e" fill-opacity=".867" d="M598.964 444.868c2.287 1.199 10.474 6.464 12.324 6.652l1.417 1.276-1.191.71c-1.205-.519-2.264-1.262-3.403-1.906l-3.028-1.848-1.036-.949c-2.541-1.354-2.417-1.775-5.121-.886z"/><path fill="#f1eee5" fill-opacity=".906" d="M702.094 420.245c.414 2.252.727 6.224.292 8.41-.242 1.217-3.534-1.644-3.964-1.921 1.004-1.253 1.209-1.472 1.798-2.915.551-1.942.579-1.928 1.874-3.574"/><path fill="#f1eee5" fill-opacity=".027" d="M483.163 429.805c2.077 1.031 5.01 3.051 6.872 4.394 1.136-.069-8.389.248-6.841.759-.611-1.087-.388-3.827-.031-5.153"/><path fill="#f4c57d" fill-opacity=".255" d="M630.747 527.418c1.992-2.64 2.221-.865 3.786-.402.112 1.652.11 3.761.093 5.43l-.742-.086c-.059-.106-.121-.212-.178-.319-.145-.273-.234-.505-.483-.696-.706-.54-1.344-1.215-2.057-1.718-.441-.311-.614-.372-.953-.678-.194-.175-.397-.492-.36-.766.042-.316.875-.752.894-.765"/><path fill="#f3ece1" fill-opacity=".114" d="M593.542 613.164c2.804-.166 6.642-.315 9.411.116-.011.866.102.865.529 1.633-.913.416-6.196 1.921-6.701.816.232-.166.558-.247.744-.471-.173-.599-1.002-.91-1.461-1.202l-.015-.104c-.343-.23-.642-.379-1.049-.471z"/><path fill="#f1eee5" fill-opacity=".659" d="M604.501 504.069c-.281-3.094-.165-5.416 3.324-5.201.938 4.71 1.005 5.18-3.324 5.201"/><path fill="#f3eee5" fill-opacity=".376" d="M633.235 506.56c2.424 1.433 1.391 6.71 1.416 9.585-4.011.159-1.563-5.959-1.47-8.133z"/><path fill="#f1eee5" d="M700.703 600.465c.361.365.728.957 1.124 1.117l.365-.203c.25.467.443 4.993.33 5.758-.307 2.074-3.03-.783-3.432-1.131.932-2.343 1.217-3.093 1.613-5.541"/><path fill="#f1eee5" fill-opacity=".541" d="M600.794 508.177c-.494-4.298-.506-4.452 3.707-4.108-.21 2.069-.546 3.807-1.834 5.469z"/><path fill="#eeca8e" fill-opacity=".867" d="m500.02 385.148.588.554c.317 2.965.263 4.764.44 7.604-.054 2.37-.036 4.71-.082 7.076l-.505.261c-.667-1.989-.818-13.364-.441-15.495"/><path fill="#f4c57d" fill-opacity=".898" d="M583.001 355.238c1.352.601 2.38 1.388 3.558 2.257-4.004-.071-6.554-.079-10.553-.378l-.777-1.16c2.587.028 5.428.289 7.772-.719"/><path fill="#f1d5aa" fill-opacity=".655" d="M616.104 471.537c.485 1.488.645 2.198 1.395 3.571l.111.208.123.598c-.04 2.217-.134 4.256-.24 6.469l-1.887-1.272c.643-2.078.37-5.175.504-7.676z"/><path fill="#f3ece1" fill-opacity=".957" d="M498.65 650.399c.805 3.347.033 4.853-.082 8.519-.28 1.267-.497 2.904-1.773 1.236.366-4.535.242-5.558 1.855-9.755"/><path fill="#f1d5aa" fill-opacity=".988" d="M615.816 438.094c.674.63.91.926 1.688 1.378-.006 2.345.419 4.91.52 7.486l-1.948.662c-.072-3.29.034-6.217-.26-9.526"/><path fill="#f3eee5" fill-opacity=".498" d="M634.413 481.587c-3.301-.597-1.517-9.989-.708-10.328.451.358.458 5.67.674 6.986.049 1.161.042 2.182.034 3.342"/><path fill="#eeca8e" fill-opacity=".824" d="m598.922 507.735 1.872.442 1.873 1.361c1.258.8 1.914.878 3.266 1.824l-.771 1.022c-1.815-1.066-4.512-3.38-6.456-.959.037-1.308.159-2.407.216-3.69"/><path fill="#f1eee5" fill-opacity=".592" d="M687.154 422.473c2.156 1.035 2.887 1.105 4.765 2.563-1.837 1.21-2.494.057-3.736 1.722-1.367 1.831-.794 5.115-1.002 7.408-.119-3.917-.044-7.775-.027-11.693"/><path fill="#f1eee5" fill-opacity=".51" d="M567.604 348.22c2.083.562 4.031 1.47 6.027 2.269l-.477.442c-6.987.89-3.732 2.325-6.157-2.471z"/><path fill="#f4c57d" fill-opacity=".8" d="M598.698 568.487c1.898 1.202 4.248 2.464 6.01 3.743l-.838.95c-1.645-1.027-3.132-1.693-4.82-2.604-.004 3.217.057 6.505-.38 9.685q-.07-5.888.028-11.774"/><path fill="#f3eee5" fill-opacity=".553" d="M516.567 451.764c.568 2.977.209 11.967.262 15.573l-.392.127c-.051-1.226-.065-1.864.001-3.069-.038-.788.128-2.069-.448-2.663-1.447-.035-1.532-3.61.073-4.185.279-.099.418-5.059.504-5.783"/><path fill="#f4c57d" fill-opacity=".737" d="M528.944 353.765c.589.73.987 1.362 1.501 2.141l-2.326-.302c-2.867-.066-3.732.039-6.512.295l1.016-1.369 1.513-.256c1.304-.066 3.491-.339 4.808-.509"/><path fill="#f1d5aa" fill-opacity=".867" d="m616.076 447.62 1.948-.662c-.096 1.908.154 4.156-.258 5.806-.907-.014-.844.06-1.665.654-.052-1.757-.04-3.474-.145-5.23z"/><path fill="#f3eee5" fill-opacity=".039" d="M706.865 431.755c.282-2.709.769-2.077 3.226-2.306 1.453.879.113 3.584-.285 4.618-1.082-.796-1.92-1.433-2.941-2.312"/><path fill="#f3eee5" fill-opacity=".733" d="M500.046 464.36c1.244.387 2.514.995 3.469 1.894-.224.762-.391 1.737.169 2.015.842.416-2.72 1.55-2.449 1.532-.327-.524-.296-3.219-1.177-5.001z"/><path fill="#f4c57d" fill-opacity=".702" d="m516.437 467.464.392-.127c.001 2.918.361 4.501-1.656 6.506-1.85-1-2.267-1.253-3.917-2.521l.701-.807c3.476 2.101 3.996 1.154 4.48-3.051"/><path fill="#f4c57d" fill-opacity=".808" d="M687.348 420.746c.991.465 5.597 2.75 6.167 3.477l-1.149.767-.447.046c-1.878-1.458-2.609-1.528-4.765-2.563z"/><path fill="#f1eee5" fill-opacity=".133" d="m703.998 444.447.54.109c3.264.535 1.301 4.054-.37 5.452l-.166-.424c-.024-1.769-.047-3.354-.004-5.137"/><path fill="#f3ece1" fill-opacity=".318" d="M603.507 535.651c1.01-3.048 4.515-3.397 2.885 1.722z"/><path fill="#f1eee5" fill-opacity=".545" d="M495.208 381.728c-1.794 3.237-5.113-.365-2.614-2.091a35 35 0 0 1 2.614 2.091"/><path fill="#f1eee5" fill-opacity=".478" d="m606.4 511.508.769-.384c3.515-1.796 3.391-1.406 2.503 2.299-1.128-.682-2.147-1.205-3.272-1.915"/><path fill="#f1eee5" fill-opacity=".592" d="M490.884 362.733c1.203.755 3.342 3.193 3.462 4.651-1.759-1.059-2.881-1.931-4.439-3.327z"/><path fill="#f1eee5" fill-opacity=".627" d="M691.152 442.829c1.834-1.942 3.745-1.294 3.379 1.191l-.123.786-.036.259c-1.207-.753-2.081-1.397-3.22-2.236"/><path fill="#f1eee5" fill-opacity=".522" d="M500.883 455.941c3.214.576 3.008 2.735.109 3.908a49 49 0 0 1-.109-3.908"/><path fill="#f1eee5" fill-opacity=".443" d="M609.481 495.529c-1.168-1.9-1.575-3.082.992-3.5-.664 2.294 2.316 1.32-.992 3.5"/><path fill="#f4c57d" fill-opacity=".682" d="M494.408 640.203c-.665-.451-5.543-3.417-5.46-3.857.657-.481 4.82 2.424 5.709 2.955z"/><path fill="#f1eee5" fill-opacity=".573" d="m485.144 450.537.694.154c1.994.394.969 1.448.444 2.918a84 84 0 0 0-2.489-1.592c.45-.501.887-.991 1.351-1.48"/><path fill="#f4c57d" fill-opacity=".69" d="m627.435 525.065.71.115c.744.69 1.47 1.298 2.212 2.001-1.273.068-1.423-.04-2.748-.359-.153-.325-.204-.542-.446-.757z"/><path fill="#eeca8e" fill-opacity=".678" d="m702.52 393.008 1.078.33c-.074 1.72-.049 1.789-.578 3.455l-.491-.264a98 98 0 0 1-.009-3.521"/><path fill="#eeca8e" fill-opacity=".859" d="M496.227 640.24c1.383.743 1.732.998 3.001 1.941l-.051.906a55 55 0 0 1-1.634-.977l-.852-.548-.769-.479z"/><path fill="#f4c57d" fill-opacity=".627" d="M716.983 618.506c2.156 1.326 2.05 2.534-1.035.586z"/><path fill="#f4c57d" fill-opacity=".62" d="M691.839 661.625c-.327-.225-2.142-1.24-1.96-1.868.712-.363 1.803.557 2.323.956z"/><path fill="#f4c57d" fill-opacity=".804" d="M714.28 675.211a103 103 0 0 1 2.076 1.568l-1.326.321c-.386-.314-.734-.604-1.136-.899z"/><path fill="#f1d5aa" fill-opacity=".408" d="M716.356 676.779c.432.259 1.263.557 1.076 1.122-.689.361-1.813-.483-2.402-.801z"/><path fill="#f1d5aa" fill-opacity=".569" d="M494.657 639.301c.666.363.952.526 1.57.939l-.305.843c-.527-.294-1.003-.553-1.514-.88z"/></svg>